<?xml version="1.0" encoding="utf-8"?>
<!-- Generator: Adobe Illustrator 12.0.0, SVG Export Plug-In . SVG Version: 6.00 Build 51448)  -->
<!DOCTYPE svg PUBLIC "-//W3C//DTD SVG 1.1//EN" "http://www.w3.org/Graphics/SVG/1.1/DTD/svg11.dtd" [
	<!ENTITY ns_svg "http://www.w3.org/2000/svg">
	<!ENTITY ns_xlink "http://www.w3.org/1999/xlink">
]>
<svg  version="1.1" id="Layer_1" xmlns="&ns_svg;" xmlns:xlink="&ns_xlink;" width="426.667" height="295.667" viewBox="0 -15 426.667 295.667" overflow="visible" enable-background="new 0 0 426.667 280.667" xml:space="preserve">
<linearGradient id="XMLID_30_" gradientUnits="userSpaceOnUse" x1="390.167" y1="317.1675" x2="36.5004" y2="-36.4992">
	<stop  offset="0" style="stop-color:#00ADD6"/>
	<stop  offset="0.0921" style="stop-color:#009BC0"/>
	<stop  offset="0.2416" style="stop-color:#0083A2"/>
	<stop  offset="0.4" style="stop-color:#00708B"/>
	<stop  offset="0.5693" style="stop-color:#00637A"/>
	<stop  offset="0.757" style="stop-color:#005B71"/>
	<stop  offset="1" style="stop-color:#00596E"/>
</linearGradient>
<rect fill="url(#XMLID_30_)" width="426.667" height="280.667"/>
<path fill="#A59610" d="M143.323,118.177l103.315-56.524L129.986,21.667L23.667,66.66L143.323,118.177z"/>
<path fill="#B4A412" d="M143.323,118.177L23.667,66.66l9.8,131.039l108.484,61.38L143.323,118.177z"/>
<path fill="#DFCB16" d="M143.323,118.177l-1.372,140.902l94.057-67.423l10.631-130.003L143.323,118.177z"/>
<path fill="#C5B630" fill-opacity="0" d="M198.435,88.025l48.204-26.373l-61.44-21.061L135.855,64.14L198.435,88.025z"/>
<path fill="#FFEB36" fill-opacity="0" d="M198.435,88.025l48.204-26.373l-5.569,68.104l-46.11,29.355L198.435,88.025z"/>
<path id="pc1_2" fill="#C5B630" fill-opacity="0" d="M185.198,40.592l-55.212-18.925L79.999,42.821l55.856,21.319L185.198,40.592z"
	/>
<path fill="#C5B630" fill-opacity="0" d="M135.855,64.14L79.999,42.821L23.667,66.66l56.204,24.198L135.855,64.14z"/>
<path fill="#D4C432" fill-opacity="0" d="M79.871,90.858L23.667,66.66l5.137,68.685l53.627,26.91L79.871,90.858z"/>
<path id="pc1_4" fill="#D4C432" fill-opacity="0" d="M82.432,162.254l-53.627-26.91l4.663,62.354l51.276,29.012L82.432,162.254z"/>
<path fill="#D4C432" fill-opacity="0" d="M142.6,192.447l-0.648,66.632L84.743,226.71l-2.312-64.456L142.6,192.447z"/>
<path fill="#FFEB36" fill-opacity="0" d="M141.951,259.079l49.869-35.747l3.139-64.219L142.6,192.447L141.951,259.079z"/>
<path id="pc1_6" fill="#FFEB36" fill-opacity="0" d="M191.82,223.332l44.188-31.676l5.062-61.898l-46.11,29.355L191.82,223.332z"/>
<path id="pc1_2_1_" fill="none" stroke="#000000" stroke-width="0.25" stroke-linejoin="bevel" d="M185.198,40.592l-55.212-18.925
	L79.999,42.821l55.856,21.319L185.198,40.592z"/>
<path id="pc1_4_1_" fill="none" stroke="#000000" stroke-width="0.25" stroke-linejoin="bevel" d="M82.432,162.254l-53.627-26.91
	l4.663,62.354l51.276,29.012L82.432,162.254z"/>
<path id="pc1_6_1_" fill="none" stroke="#000000" stroke-width="0.25" stroke-linejoin="bevel" d="M191.82,223.332l44.188-31.676
	l5.062-61.898l-46.11,29.355L191.82,223.332z"/>
<path fill="none" stroke="#000000" stroke-width="0.25" stroke-linejoin="bevel" d="M198.435,88.025l48.204-26.373"/>
<path fill="none" stroke="#000000" stroke-width="0.25" stroke-linejoin="bevel" d="M185.198,40.592l61.44,21.061"/>
<path fill="none" stroke="#000000" stroke-width="0.25" stroke-linejoin="bevel" d="M241.069,129.757l5.569-68.104"/>
<path fill="none" stroke="#000000" stroke-width="0.25" stroke-linejoin="bevel" d="M79.871,90.858L23.667,66.66"/>
<path fill="none" stroke="#000000" stroke-width="0.25" stroke-linejoin="bevel" d="M28.804,135.345L23.667,66.66"/>
<path fill="none" stroke="#000000" stroke-width="0.25" stroke-linejoin="bevel" d="M79.999,42.821L23.667,66.66"/>
<path fill="none" stroke="#000000" stroke-width="0.25" stroke-linejoin="bevel" d="M142.6,192.447l-0.648,66.632"/>
<path fill="none" stroke="#000000" stroke-width="0.2" stroke-linejoin="bevel" d="M191.82,223.332l-49.869,35.747"/>
<path fill="none" stroke="#000000" stroke-width="0.2" stroke-linejoin="bevel" d="M84.743,226.71l57.208,32.368"/>
<path fill="#1CA510" d="M143.323,118.177l55.111-30.151L135.855,64.14L79.871,90.858L143.323,118.177z"/>
<path fill="#1FB412" d="M143.323,118.177L79.871,90.858l2.561,71.396l60.168,30.192L143.323,118.177z"/>
<path fill="#26DF16" d="M143.323,118.177l-0.724,74.27l52.359-33.334l3.476-71.087L143.323,118.177z"/>
<path fill="#3CCA30" fill-opacity="0" d="M171.832,102.58l26.603-14.554l-32.203-12.292l-26.88,13.703L171.832,102.58z"/>
<path fill="#46FF36" fill-opacity="0" d="M198.435,88.025l-26.603,14.554l-1.127,37.305l25.946-15.39L198.435,88.025z"/>
<path id="pc2_2" fill="#3CCA30" fill-opacity="0" d="M139.352,89.437l26.88-13.703L135.855,64.14l-27.081,12.924L139.352,89.437z"/>
<path fill="#3CCA30" fill-opacity="0" d="M110.606,104.091l28.745-14.654l-30.577-12.373L79.871,90.858L110.606,104.091z"/>
<path fill="#3FD432" fill-opacity="0" d="M111.13,141.481l-0.523-37.39L79.871,90.858l1.313,36.634L111.13,141.481z"/>
<path id="pc2_4" fill="#3FD432" fill-opacity="0" d="M111.13,141.481l-29.945-13.989l1.247,34.762l29.194,14.649L111.13,141.481z"/>
<path fill="#3FD432" fill-opacity="0" d="M111.13,141.481l0.496,35.423l30.974,15.543l0.352-36.101L111.13,141.481z"/>
<path fill="#46FF36" fill-opacity="0" d="M142.951,156.346l-0.352,36.101l27.038-17.213l1.067-35.349L142.951,156.346z"/>
<path id="pc2_6" fill="#46FF36" fill-opacity="0" d="M196.651,124.495l-25.946,15.39l-1.067,35.349l25.321-16.121L196.651,124.495z"
	/>
<path id="pc2_2_1_" fill="none" stroke="#000000" stroke-width="0.25" stroke-linejoin="bevel" d="M139.352,89.437l26.88-13.703
	L135.855,64.14l-27.081,12.924L139.352,89.437z"/>
<path id="pc2_4_1_" fill="none" stroke="#000000" stroke-width="0.25" stroke-linejoin="bevel" d="M111.13,141.481l-29.945-13.989
	l1.247,34.762l29.194,14.649L111.13,141.481z"/>
<path id="pc2_6_1_" fill="none" stroke="#000000" stroke-width="0.25" stroke-linejoin="bevel" d="M196.651,124.495l-25.946,15.39
	l-1.067,35.349l25.321-16.121L196.651,124.495z"/>
<path fill="none" stroke="#000000" stroke-width="0.25" stroke-linejoin="bevel" d="M171.832,102.58l26.603-14.554l-32.203-12.292"
	/>
<path fill="none" stroke="#000000" stroke-width="0.25" stroke-linejoin="bevel" d="M198.435,88.025l-1.783,36.469"/>
<path fill="none" stroke="#000000" stroke-width="0.25" stroke-linejoin="bevel" d="M108.774,77.064L79.871,90.858l30.735,13.233"/>
<path fill="none" stroke="#000000" stroke-width="0.25" stroke-linejoin="bevel" d="M79.871,90.858l2.561,71.396"/>
<path fill="none" stroke="#000000" stroke-width="0.25" stroke-linejoin="bevel" d="M111.626,176.904l30.974,15.543l0.352-36.101"/>
<path fill="none" stroke="#000000" stroke-width="0.25" stroke-linejoin="bevel" d="M142.6,192.447l27.038-17.213"/>
<path fill="#10A59C" d="M143.323,118.177l28.509-15.597l-32.48-13.143l-28.745,14.654L143.323,118.177z"/>
<path fill="#12B4AA" d="M143.323,118.177l-32.717-14.086l0.523,37.39l31.821,14.865L143.323,118.177z"/>
<path fill="#16DFD3" d="M143.323,118.177l-0.372,38.169l27.754-16.461l1.127-37.305L143.323,118.177z"/>
<path fill="#30C5BC" fill-opacity="0" d="M157.828,110.241l14.004-7.661l-16.489-6.672l-14.071,7.426L157.828,110.241z"/>
<path fill="#36FFF3" fill-opacity="0" d="M171.261,121.487l0.571-18.907l-14.004,7.661l-0.387,19.129L171.261,121.487z"/>
<path id="pc3_2" fill="#30C5BC" fill-opacity="0" d="M141.271,103.334l14.071-7.426l-15.991-6.471l-14.128,7.202L141.271,103.334z"
	/>
<path fill="#30C5BC" fill-opacity="0" d="M126.705,111.022l14.566-7.688l-16.048-6.695l-14.617,7.452L126.705,111.022z"/>
<path fill="#32D4CA" fill-opacity="0" d="M126.751,130.173l-0.046-19.151l-16.099-6.931l0.265,18.951L126.751,130.173z"/>
<path id="pc3_4" fill="#32D4CA" fill-opacity="0" d="M111.13,141.481l15.665,7.317l-0.044-18.625l-15.88-7.132L111.13,141.481z"/>
<path fill="#32D4CA" fill-opacity="0" d="M142.951,156.346l0.184-18.815l-16.384-7.358l0.044,18.625L142.951,156.346z"/>
<path fill="#36FFF3" fill-opacity="0" d="M142.951,156.346l14.114-8.372l0.376-18.604l-14.307,8.162L142.951,156.346z"/>
<path id="pc3_6" fill="#36FFF3" fill-opacity="0" d="M170.705,139.885l0.556-18.398l-13.819,7.883l-0.376,18.604L170.705,139.885z"
	/>
<path id="pc3_2_1_" fill="none" stroke="#000000" stroke-width="0.25" stroke-linejoin="bevel" d="M141.271,103.334l14.071-7.426
	l-15.991-6.471l-14.128,7.202L141.271,103.334z"/>
<path id="pc3_4_1_" fill="none" stroke="#000000" stroke-width="0.25" stroke-linejoin="bevel" d="M111.13,141.481l15.665,7.317
	l-0.044-18.625l-15.88-7.132L111.13,141.481z"/>
<path id="pc3_6_1_" fill="none" stroke="#000000" stroke-width="0.25" stroke-linejoin="bevel" d="M170.705,139.885l0.556-18.398
	l-13.819,7.883l-0.376,18.604L170.705,139.885z"/>
<path fill="none" stroke="#000000" stroke-width="0.25" stroke-linejoin="bevel" d="M171.261,121.487l0.571-18.907l-14.004,7.661"/>
<path fill="none" stroke="#000000" stroke-width="0.25" stroke-linejoin="bevel" d="M171.832,102.58l-16.489-6.672"/>
<path fill="none" stroke="#000000" stroke-width="0.25" stroke-linejoin="bevel" d="M125.224,96.639l-14.617,7.452l16.099,6.931"/>
<path fill="none" stroke="#000000" stroke-width="0.25" stroke-linejoin="bevel" d="M110.606,104.091l0.265,18.951"/>
<path fill="none" stroke="#000000" stroke-width="0.25" stroke-linejoin="bevel" d="M126.795,148.798l16.156,7.548l0.184-18.815"/>
<path fill="none" stroke="#000000" stroke-width="0.25" stroke-linejoin="bevel" d="M142.951,156.346l14.114-8.372L142.951,156.346z
	"/>
<path fill="#1016A5" d="M143.323,118.177l14.505-7.936l-16.557-6.907l-14.566,7.688L143.323,118.177z"/>
<path fill="#1218B4" d="M143.323,118.177l-16.618-7.155l0.046,19.151l16.384,7.358L143.323,118.177z"/>
<path fill="#161EDF" d="M143.323,118.177l-0.188,19.354l14.307-8.162l0.387-19.129L143.323,118.177z"/>
<path fill="#8086C5" fill-opacity="0" d="M150.64,114.174l7.188-3.933l-8.343-3.48l-7.205,3.871L150.64,114.174z"/>
<path fill="#868EFF" fill-opacity="0" d="M150.494,123.862l7.14-3.99l0.194-9.631l-7.188,3.933L150.494,123.862z"/>
<path id="pc4_2" fill="#8086C5" fill-opacity="0" d="M142.28,110.631l7.205-3.871l-8.214-3.426l-7.22,3.811L142.28,110.631z"/>
<path fill="#8086C5" fill-opacity="0" d="M126.705,111.022l8.242,3.549l7.333-3.939l-8.229-3.487L126.705,111.022z"/>
<path fill="#8288D4" fill-opacity="0" d="M126.729,120.665l8.184,3.601l0.035-9.694l-8.242-3.549L126.729,120.665z"/>
<path id="pc4_4" fill="#8288D4" fill-opacity="0" d="M126.751,130.173l8.127,3.65l0.034-9.558l-8.184-3.601L126.751,130.173z"/>
<path fill="#8288D4" fill-opacity="0" d="M134.878,133.823l8.257,3.708l0.094-9.608l-8.316-3.658L134.878,133.823z"/>
<path fill="#868EFF" fill-opacity="0" d="M143.135,137.531l7.216-4.117l0.144-9.553l-7.266,4.061L143.135,137.531z"/>
<path id="pc4_6" fill="#868EFF" fill-opacity="0" d="M150.351,133.415l7.091-4.045l0.192-9.498l-7.14,3.99L150.351,133.415z"/>
<path id="pc4_2_1_" fill="none" stroke="#000000" stroke-width="0.25" stroke-linejoin="bevel" d="M142.28,110.631l7.205-3.871
	l-8.214-3.426l-7.22,3.811L142.28,110.631z"/>
<path id="pc4_4_1_" fill="none" stroke="#000000" stroke-width="0.25" stroke-linejoin="bevel" d="M126.751,130.173l8.127,3.65
	l0.034-9.558l-8.184-3.601L126.751,130.173z"/>
<path id="pc4_6_1_" fill="none" stroke="#000000" stroke-width="0.25" stroke-linejoin="bevel" d="M150.351,133.415l7.091-4.045
	l0.192-9.498l-7.14,3.99L150.351,133.415z"/>
<path fill="none" stroke="#000000" stroke-width="0.25" stroke-linejoin="bevel" d="M150.64,114.174l7.188-3.933l-8.343-3.48"/>
<path fill="none" stroke="#000000" stroke-width="0.25" stroke-linejoin="bevel" d="M157.828,110.241l-0.194,9.631"/>
<path fill="none" stroke="#000000" stroke-width="0.25" stroke-linejoin="bevel" d="M134.052,107.145l-7.347,3.877l8.242,3.549"/>
<path fill="none" stroke="#000000" stroke-width="0.25" stroke-linejoin="bevel" d="M126.705,111.022l0.023,9.643"/>
<path fill="none" stroke="#000000" stroke-width="0.25" stroke-linejoin="bevel" d="M134.878,133.823l8.257,3.708l0.094-9.608"/>
<path fill="none" stroke="#000000" stroke-width="0.25" stroke-linejoin="bevel" d="M143.135,137.531l7.216-4.117"/>
<path fill="#A210A5" d="M143.323,118.177l7.316-4.003l-8.359-3.542l-7.333,3.939L143.323,118.177z"/>
<path fill="#B112B4" d="M143.323,118.177l-8.376-3.606l-0.035,9.694l8.316,3.658L143.323,118.177z"/>
<path fill="#DB16DF" d="M143.323,118.177l-0.095,9.746l7.266-4.061l0.146-9.688L143.323,118.177z"/>
<path fill="#C270C5" fill-opacity="0" d="M146.998,116.167l3.642-1.993l-4.196-1.778l-3.646,1.977L146.998,116.167z"/>
<path fill="#FB86FF" fill-opacity="0" d="M146.938,121.042l3.629-2.007l0.073-4.861l-3.642,1.993L146.938,121.042z"/>
<path id="pc5_2" fill="#C270C5" fill-opacity="0" d="M142.797,114.372l3.646-1.977l-4.163-1.764l-3.65,1.961L142.797,114.372z"/>
<path fill="#C270C5" fill-opacity="0" d="M134.947,114.571l4.171,1.796l3.679-1.995l-4.167-1.78L134.947,114.571z"/>
<path fill="#D162D4" fill-opacity="0" d="M134.93,119.435l4.156,1.809l0.032-4.877l-4.171-1.796L134.93,119.435z"/>
<path id="pc5_4" fill="#D162D4" fill-opacity="0" d="M134.912,124.265l4.142,1.821l0.032-4.843l-4.156-1.809L134.912,124.265z"/>
<path fill="#D162D4" fill-opacity="0" d="M139.054,126.086l4.175,1.836l0.047-4.855l-4.189-1.824L139.054,126.086z"/>
<path fill="#FB86FF" fill-opacity="0" d="M143.229,127.923l3.648-2.04l0.061-4.841l-3.662,2.025L143.229,127.923z"/>
<path id="pc5_6" fill="#FB86FF" fill-opacity="0" d="M146.877,125.883l3.617-2.021l0.072-4.827l-3.629,2.007L146.877,125.883z"/>
<path fill="#C270C5" fill-opacity="0" d="M143.323,118.177l3.675-2.01l-4.201-1.794l-3.679,1.995L143.323,118.177z"/>
<path fill="#D162D4" fill-opacity="0" d="M139.086,121.244l4.189,1.824l0.048-4.891l-4.205-1.81L139.086,121.244z"/>
<path fill="#FB86FF" fill-opacity="0" d="M143.275,123.067l3.662-2.025l0.061-4.875l-3.675,2.01L143.275,123.067z"/>
<path id="pc5_2_1_" fill="none" stroke="#000000" stroke-width="0.25" stroke-linejoin="bevel" d="M142.797,114.372l3.646-1.977
	l-4.163-1.764l-3.65,1.961L142.797,114.372z"/>
<path id="pc5_4_1_" fill="none" stroke="#000000" stroke-width="0.25" stroke-linejoin="bevel" d="M134.912,124.265l4.142,1.821
	l0.032-4.843l-4.156-1.809L134.912,124.265z"/>
<path id="pc5_6_1_" fill="none" stroke="#000000" stroke-width="0.25" stroke-linejoin="bevel" d="M146.877,125.883l3.617-2.021
	l0.072-4.827l-3.629,2.007L146.877,125.883z"/>
<path fill="none" stroke="#000000" stroke-width="0.25" stroke-linejoin="bevel" d="M146.998,116.167l3.642-1.993l-4.196-1.778"/>
<path fill="none" stroke="#000000" stroke-width="0.25" stroke-linejoin="bevel" d="M150.64,114.174l-0.073,4.861"/>
<path fill="none" stroke="#000000" stroke-width="0.25" stroke-linejoin="bevel" d="M138.63,112.592l-3.683,1.979l4.171,1.796"/>
<path fill="none" stroke="#000000" stroke-width="0.25" stroke-linejoin="bevel" d="M134.947,114.571l-0.018,4.864"/>
<path fill="none" stroke="#000000" stroke-width="0.25" stroke-linejoin="bevel" d="M139.054,126.086l4.175,1.836l0.047-4.855"/>
<path fill="none" stroke="#000000" stroke-width="0.25" stroke-linejoin="bevel" d="M143.229,127.923l3.648-2.04"/>
<path fill="none" stroke="#000000" stroke-width="0.25" stroke-linejoin="bevel" d="M139.086,121.244l4.189,1.824l3.662-2.025
	l0.061-4.875l-4.201-1.794l-3.679,1.995L139.086,121.244z"/>
<path fill="none" stroke="#000000" stroke-width="0.25" stroke-linejoin="bevel" d="M143.275,123.067l0.048-4.891l3.675-2.01"/>
<path fill="none" stroke="#000000" stroke-width="0.25" stroke-linejoin="bevel" d="M143.323,118.177l-4.205-1.81"/>
<path fill="none" stroke="#FFFFFF" stroke-width="0.3" d="M33.879,252.186l16.107-9.3L33.879,252.186z"/>
<path fill="#FFFFFF" stroke="#FFFFFF" stroke-width="0.3" d="M33.879,252.186l-0.5-0.866l-1.579,2.066l2.579-0.334L33.879,252.186z"
	/>
<path fill="none" stroke="#FFFFFF" stroke-width="0.3" d="M66.095,252.186l-16.108-9.3L66.095,252.186z"/>
<path fill="#FFFFFF" stroke="#FFFFFF" stroke-width="0.3" d="M66.095,252.186l0.5-0.866l1.598,2.066l-2.598-0.334L66.095,252.186z"
	/>
<path fill="none" stroke="#FFFFFF" stroke-width="0.3" d="M49.986,224.287v18.6V224.287z"/>
<path fill="#FFFFFF" stroke="#FFFFFF" stroke-width="0.3" d="M49.986,224.287h-1l1-2.4l1,2.4H49.986z"/>
<text transform="matrix(1 0 0 1 51.9873 224.2866)" font-family="'ArialMT'" font-size="8.4">y</text>
<g enable-background="new    ">
	<path fill="#FFFFFF" d="M52.511,225.963l-0.078-0.688c0.161,0.043,0.301,0.065,0.421,0.065c0.163,0,0.294-0.027,0.392-0.082
		c0.099-0.055,0.179-0.132,0.241-0.229c0.046-0.074,0.121-0.258,0.225-0.551c0.014-0.041,0.035-0.102,0.065-0.182l-1.656-4.37h0.785
		l0.911,2.519c0.118,0.319,0.224,0.655,0.317,1.007c0.088-0.333,0.19-0.661,0.309-0.983l0.928-2.542h0.738l-1.644,4.437
		c-0.179,0.477-0.317,0.805-0.416,0.985c-0.132,0.242-0.282,0.421-0.452,0.533c-0.17,0.113-0.373,0.17-0.608,0.17
		C52.846,226.052,52.687,226.022,52.511,225.963z"/>
</g>
<text transform="matrix(1 0 0 1 63.9873 247.8872)" font-family="'ArialMT'" font-size="8.4">z</text>
<g enable-background="new    ">
	<path fill="#FFFFFF" d="M64.151,247.887v-0.596l2.764-3.178c-0.313,0.016-0.59,0.023-0.829,0.023h-1.771v-0.609h3.555v0.498
		l-2.353,2.759l-0.465,0.517c0.332-0.031,0.643-0.047,0.933-0.047h2.018v0.633H64.151z"/>
</g>
<text transform="matrix(1 0 0 1 33.8789 247.8872)" font-family="'ArialMT'" font-size="8.4">x</text>
<g enable-background="new    ">
	<path fill="#FFFFFF" d="M33.934,247.887l1.592-2.255l-1.475-2.104h0.916l0.686,1.023c0.124,0.195,0.223,0.355,0.297,0.48
		c0.123-0.174,0.233-0.332,0.333-0.473l0.729-1.031h0.888l-1.472,2.092l1.584,2.268h-0.906l-0.897-1.348l-0.214-0.333l-1.164,1.681
		H33.934z"/>
</g>
<g id="XMLID_4_" opacity="0.6">
	<g>
		<rect x="374.908" y="58.54" fill="#FFFF00" width="13.439" height="13.44"/>
		<rect x="361.468" y="58.54" fill="#FFFF00" width="13.44" height="13.44"/>
		<rect x="348.028" y="58.54" fill="#FFFF00" width="13.439" height="13.44"/>
		<rect x="334.588" y="58.54" fill="#FFFF00" width="13.44" height="13.44"/>
		<rect x="321.148" y="58.54" fill="#FFFF00" width="13.439" height="13.44"/>
		<rect x="307.708" y="58.54" fill="#FFFF00" width="13.44" height="13.44"/>
		<rect x="294.268" y="58.54" fill="#FFFF00" width="13.44" height="13.44"/>
	</g>
	<g>
	</g>
</g>
<g id="XMLID_14_">
	<g>
		<radialGradient id="XMLID_31_" cx="395.0713" cy="65.2515" r="6.7197" gradientUnits="userSpaceOnUse">
			<stop  offset="0" style="stop-color:#FFFFFF"/>
			<stop  offset="0.1361" style="stop-color:#FBFFFF"/>
			<stop  offset="0.2773" style="stop-color:#EEFFFE"/>
			<stop  offset="0.4208" style="stop-color:#DAFFFD"/>
			<stop  offset="0.5659" style="stop-color:#BDFFFB"/>
			<stop  offset="0.7122" style="stop-color:#97FFF9"/>
			<stop  offset="0.8575" style="stop-color:#6AFFF6"/>
			<stop  offset="1" style="stop-color:#36FFF3"/>
		</radialGradient>
		<rect x="388.352" y="58.531" fill="url(#XMLID_31_)" width="13.439" height="13.44"/>
	</g>
	<g>
		<rect x="388.352" y="58.531" fill="none" stroke="#000000" stroke-width="0.3" width="13.439" height="13.44"/>
	</g>
</g>
<path fill="none" stroke="#FFFFFF" stroke-width="0.7" d="M395.167,71.927c0,26.6-98.2-9.4-94.184,17.336"/>
<path fill="#FFFFFF" stroke="#FFFFFF" stroke-width="0.3" d="M300.983,90.895l-1.439-3.457h2.881L300.983,90.895z"/>
<g id="XMLID_5_" opacity="0.6">
	<g>
		<rect x="375.171" y="91.179" fill="#FFFF00" width="13.44" height="13.44"/>
		<rect x="361.731" y="91.179" fill="#FFFF00" width="13.439" height="13.44"/>
		<rect x="348.291" y="91.179" fill="#FFFF00" width="13.44" height="13.44"/>
		<rect x="334.852" y="91.179" fill="#FFFF00" width="13.439" height="13.44"/>
		<rect x="321.411" y="91.179" fill="#FFFF00" width="13.44" height="13.44"/>
		<rect x="307.972" y="91.179" fill="#FFFF00" width="13.439" height="13.44"/>
		<rect x="294.531" y="91.179" fill="#FFFF00" width="13.44" height="13.44"/>
	</g>
	<g>
	</g>
</g>
<g id="XMLID_15_">
	<g>
		<radialGradient id="XMLID_32_" cx="395.0713" cy="97.7876" r="6.7197" gradientUnits="userSpaceOnUse">
			<stop  offset="0" style="stop-color:#FFFFFF"/>
			<stop  offset="0.1768" style="stop-color:#FBFBFF"/>
			<stop  offset="0.3599" style="stop-color:#EEEFFF"/>
			<stop  offset="0.5461" style="stop-color:#DADCFF"/>
			<stop  offset="0.7343" style="stop-color:#BDC1FF"/>
			<stop  offset="0.9223" style="stop-color:#989EFF"/>
			<stop  offset="1" style="stop-color:#868EFF"/>
		</radialGradient>
		<rect x="388.352" y="91.067" fill="url(#XMLID_32_)" width="13.439" height="13.44"/>
	</g>
	<g>
		<rect x="388.352" y="91.067" fill="none" stroke="#000000" stroke-width="0.3" width="13.439" height="13.44"/>
	</g>
</g>
<g enable-background="new    ">
	<path fill="#FFFFFF" d="M282.46,100.65v-5.727h0.758v5.727H282.46z"/>
	<path fill="#FFFFFF" d="M284.683,100.65v-5.727h0.758v5.727H284.683z"/>
	<path fill="#FFFFFF" d="M286.905,100.65v-5.727h0.758v5.727H286.905z"/>
</g>
<g id="XMLID_6_" opacity="0.6">
	<g>
		<rect x="374.908" y="123.819" fill="#FFFF00" width="13.439" height="13.44"/>
		<rect x="361.468" y="123.819" fill="#FFFF00" width="13.44" height="13.44"/>
		<rect x="348.028" y="123.819" fill="#FFFF00" width="13.439" height="13.44"/>
		<rect x="334.588" y="123.819" fill="#FFFF00" width="13.44" height="13.44"/>
		<rect x="321.148" y="123.819" fill="#FFFF00" width="13.439" height="13.44"/>
		<rect x="307.708" y="123.819" fill="#FFFF00" width="13.44" height="13.44"/>
		<rect x="294.268" y="123.819" fill="#FFFF00" width="13.44" height="13.44"/>
	</g>
	<g>
	</g>
</g>
<g id="XMLID_16_">
	<g>
		<radialGradient id="XMLID_33_" cx="395.0713" cy="130.5308" r="6.7197" gradientUnits="userSpaceOnUse">
			<stop  offset="0" style="stop-color:#FFFFFF"/>
			<stop  offset="0.1768" style="stop-color:#FFFBFF"/>
			<stop  offset="0.3599" style="stop-color:#FEEEFF"/>
			<stop  offset="0.5461" style="stop-color:#FEDAFF"/>
			<stop  offset="0.7343" style="stop-color:#FDBDFF"/>
			<stop  offset="0.9223" style="stop-color:#FC98FF"/>
			<stop  offset="1" style="stop-color:#FB86FF"/>
		</radialGradient>
		<rect x="388.352" y="123.811" fill="url(#XMLID_33_)" width="13.439" height="13.44"/>
	</g>
	<g>
		
			<rect x="388.352" y="123.811" fill="none" stroke="#000000" stroke-width="0.3" stroke-linejoin="bevel" width="13.439" height="13.44"/>
	</g>
</g>
<g enable-background="new    ">
	<path fill="#FFFFFF" d="M282.46,133.393v-5.727h0.758v5.727H282.46z"/>
	<path fill="#FFFFFF" d="M286.185,133.393l-2.221-5.727h0.82l1.492,4.16c0.119,0.333,0.22,0.646,0.301,0.938
		c0.088-0.313,0.191-0.625,0.309-0.938l1.547-4.16h0.773l-2.242,5.727H286.185z"/>
</g>
<g id="XMLID_17_">
	<g>
		<rect x="388.352" y="156.452" fill="#FB86FF" width="13.439" height="13.439"/>
	</g>
	<g>
		<rect x="388.352" y="156.452" fill="none" stroke="#000000" stroke-width="0.3" width="13.439" height="13.439"/>
	</g>
</g>
<g id="XMLID_7_" opacity="0.6">
	<g>
		<rect x="374.908" y="156.459" fill="#FA19FF" width="13.439" height="13.439"/>
		<rect x="361.468" y="156.459" fill="#FA19FF" width="13.44" height="13.439"/>
		<rect x="348.028" y="156.459" fill="#FA19FF" width="13.439" height="13.439"/>
		<rect x="334.588" y="156.459" fill="#FA19FF" width="13.44" height="13.439"/>
		<rect x="321.148" y="156.459" fill="#FA19FF" width="13.439" height="13.439"/>
		<rect x="307.708" y="156.459" fill="#FA19FF" width="13.44" height="13.439"/>
		<rect x="294.268" y="156.459" fill="#FA19FF" width="13.44" height="13.439"/>
	</g>
	<g>
	</g>
</g>
<g enable-background="new    ">
	<path fill="#FFFFFF" d="M284.681,166.034l-2.221-5.727h0.82l1.492,4.16c0.119,0.333,0.22,0.646,0.301,0.938
		c0.088-0.313,0.191-0.625,0.309-0.938l1.547-4.16h0.773l-2.242,5.727H284.681z"/>
</g>
<g id="XMLID_1_" opacity="0.6">
	<g>
		<rect x="294.264" y="25.899" fill="#FFFF00" width="13.44" height="13.44"/>
	</g>
	<g>
	</g>
</g>
<g id="XMLID_3_" opacity="0.6">
	<g>
		<rect x="361.464" y="25.899" fill="#FFFF00" width="13.44" height="13.44"/>
		<rect x="348.024" y="25.899" fill="#FFFF00" width="13.439" height="13.44"/>
		<rect x="334.584" y="25.899" fill="#FFFF00" width="13.44" height="13.44"/>
		<rect x="321.145" y="25.899" fill="#FFFF00" width="13.439" height="13.44"/>
	</g>
	<g>
	</g>
</g>
<g id="XMLID_2_" opacity="0.6">
	<g>
		<rect x="374.904" y="25.899" fill="#FFFF00" width="13.439" height="13.44"/>
		<rect x="307.704" y="25.899" fill="#FFFF00" width="13.44" height="13.44"/>
	</g>
	<g>
	</g>
</g>
<g id="XMLID_13_">
	<g>
		<radialGradient id="XMLID_34_" cx="395.0713" cy="32.4575" r="6.7197" gradientUnits="userSpaceOnUse">
			<stop  offset="0" style="stop-color:#FFFFFF"/>
			<stop  offset="0.1551" style="stop-color:#FBFFFB"/>
			<stop  offset="0.3159" style="stop-color:#EFFFEE"/>
			<stop  offset="0.4792" style="stop-color:#DCFEDA"/>
			<stop  offset="0.6444" style="stop-color:#C0FEBD"/>
			<stop  offset="0.8111" style="stop-color:#9CFD97"/>
			<stop  offset="0.9767" style="stop-color:#72FC6A"/>
			<stop  offset="1" style="stop-color:#6BFC63"/>
		</radialGradient>
		<rect x="388.352" y="25.737" fill="url(#XMLID_34_)" width="13.439" height="13.44"/>
	</g>
	<g>
		<rect x="388.352" y="25.737" fill="none" stroke="#000000" stroke-width="0.3" width="13.439" height="13.44"/>
	</g>
</g>
<g enable-background="new    ">
	<path fill="#FFFFFF" d="M282.46,35.321v-5.727h0.758v5.727H282.46z"/>
</g>
<g id="XMLID_8_">
	<g>
		<rect x="374.908" y="25.739" fill="#FFEB36" width="13.439" height="13.44"/>
		<rect x="361.468" y="25.739" fill="#FFEB36" width="13.44" height="13.44"/>
		<rect x="348.028" y="25.739" fill="#FFEB36" width="13.439" height="13.44"/>
		<rect x="334.588" y="25.739" fill="#FFEB36" width="13.44" height="13.44"/>
		<rect x="321.148" y="25.739" fill="#FFEB36" width="13.439" height="13.44"/>
		<rect x="307.708" y="25.739" fill="#FFEB36" width="13.44" height="13.44"/>
		<rect x="294.269" y="25.739" fill="#FFEB36" width="13.439" height="13.44"/>
	</g>
	<g>
		<polyline fill="none" stroke="#000000" stroke-width="0.3" points="307.708,39.179 294.269,39.179 294.269,25.739 307.708,25.739 
					"/>
		<polyline fill="none" stroke="#000000" stroke-width="0.3" points="321.148,39.179 307.708,39.179 307.708,25.739 321.148,25.739 
					"/>
		<polyline fill="none" stroke="#000000" stroke-width="0.3" points="334.588,39.179 321.148,39.179 321.148,25.739 334.588,25.739 
					"/>
		<polyline fill="none" stroke="#000000" stroke-width="0.3" points="348.028,39.179 334.588,39.179 334.588,25.739 348.028,25.739 
					"/>
		<polyline fill="none" stroke="#000000" stroke-width="0.3" points="361.468,39.179 348.028,39.179 348.028,25.739 361.468,25.739 
					"/>
		<polyline fill="none" stroke="#000000" stroke-width="0.3" points="374.908,39.179 361.468,39.179 361.468,25.739 374.908,25.739 
					"/>
		<rect x="374.908" y="25.739" fill="none" stroke="#000000" stroke-width="0.3" width="13.439" height="13.44"/>
	</g>
</g>
<path fill="none" stroke="#000000" stroke-width="0.3" d="M401.784,39.183"/>
<g id="XMLID_9_">
	<g>
		<rect x="374.908" y="156.453" fill="#FB86FF" width="13.439" height="13.439"/>
		<rect x="361.468" y="156.453" fill="#FB86FF" width="13.44" height="13.439"/>
		<radialGradient id="XMLID_35_" cx="354.748" cy="163.1724" r="6.7197" gradientUnits="userSpaceOnUse">
			<stop  offset="0" style="stop-color:#FFFFFF"/>
			<stop  offset="0.1567" style="stop-color:#FFFBFB"/>
			<stop  offset="0.319" style="stop-color:#FFEEEE"/>
			<stop  offset="0.484" style="stop-color:#FFDADA"/>
			<stop  offset="0.6509" style="stop-color:#FFBDBD"/>
			<stop  offset="0.8192" style="stop-color:#FF9797"/>
			<stop  offset="0.9865" style="stop-color:#FF6A6A"/>
			<stop  offset="1" style="stop-color:#FF6666"/>
		</radialGradient>
		<rect x="348.028" y="156.453" fill="url(#XMLID_35_)" width="13.439" height="13.439"/>
		<rect x="334.588" y="156.453" fill="#FB86FF" width="13.44" height="13.439"/>
		<rect x="321.148" y="156.453" fill="#FB86FF" width="13.439" height="13.439"/>
		<rect x="307.708" y="156.453" fill="#FB86FF" width="13.44" height="13.439"/>
		<rect x="294.269" y="156.453" fill="#FB86FF" width="13.439" height="13.439"/>
	</g>
	<g>
		<polyline fill="none" stroke="#000000" stroke-width="0.3" points="307.708,169.892 294.269,169.892 294.269,156.453 
			307.708,156.453 		"/>
		<polyline fill="none" stroke="#000000" stroke-width="0.3" points="321.148,169.892 307.708,169.892 307.708,156.453 
			321.148,156.453 		"/>
		<polyline fill="none" stroke="#000000" stroke-width="0.3" points="334.588,169.892 321.148,169.892 321.148,156.453 
			334.588,156.453 		"/>
		<polyline fill="none" stroke="#000000" stroke-width="0.3" points="348.028,169.892 334.588,169.892 334.588,156.453 
			348.028,156.453 		"/>
		<polyline fill="none" stroke="#000000" stroke-width="0.3" points="361.468,169.892 348.028,169.892 348.028,156.453 
			361.468,156.453 		"/>
		<polyline fill="none" stroke="#000000" stroke-width="0.3" points="374.908,169.892 361.468,169.892 361.468,156.453 
			374.908,156.453 		"/>
		<rect x="374.908" y="156.453" fill="none" stroke="#000000" stroke-width="0.3" width="13.439" height="13.439"/>
	</g>
</g>
<g id="XMLID_11_">
	<g>
		<rect x="374.908" y="91.069" fill="#36FFF3" width="13.439" height="13.44"/>
		<rect x="361.468" y="91.069" fill="#36FFF3" width="13.44" height="13.44"/>
		<rect x="348.028" y="91.069" fill="#36FFF3" width="13.439" height="13.44"/>
		<rect x="334.588" y="91.069" fill="#36FFF3" width="13.44" height="13.44"/>
		<rect x="321.148" y="91.069" fill="#36FFF3" width="13.439" height="13.44"/>
		<rect x="307.708" y="91.069" fill="#36FFF3" width="13.44" height="13.44"/>
		<rect x="294.269" y="91.069" fill="#36FFF3" width="13.439" height="13.44"/>
	</g>
	<g>
		<polyline fill="none" stroke="#000000" stroke-width="0.3" points="307.708,104.509 294.269,104.509 294.269,91.069 
			307.708,91.069 		"/>
		<polyline fill="none" stroke="#000000" stroke-width="0.3" points="321.148,104.509 307.708,104.509 307.708,91.069 
			321.148,91.069 		"/>
		<polyline fill="none" stroke="#000000" stroke-width="0.3" points="334.588,104.509 321.148,104.509 321.148,91.069 
			334.588,91.069 		"/>
		<polyline fill="none" stroke="#000000" stroke-width="0.3" points="348.028,104.509 334.588,104.509 334.588,91.069 
			348.028,91.069 		"/>
		<polyline fill="none" stroke="#000000" stroke-width="0.3" points="361.468,104.509 348.028,104.509 348.028,91.069 
			361.468,91.069 		"/>
		<polyline fill="none" stroke="#000000" stroke-width="0.3" points="374.908,104.509 361.468,104.509 361.468,91.069 
			374.908,91.069 		"/>
		<rect x="374.908" y="91.069" fill="none" stroke="#000000" stroke-width="0.3" width="13.439" height="13.44"/>
	</g>
</g>
<g id="XMLID_10_">
	<g>
		<rect x="374.908" y="58.532" fill="#6BFC63" width="13.439" height="13.44"/>
		<rect x="361.468" y="58.532" fill="#6BFC63" width="13.44" height="13.44"/>
		<rect x="348.028" y="58.532" fill="#6BFC63" width="13.439" height="13.44"/>
		<rect x="334.588" y="58.532" fill="#6BFC63" width="13.44" height="13.44"/>
		<rect x="321.148" y="58.532" fill="#6BFC63" width="13.439" height="13.44"/>
		<rect x="307.708" y="58.532" fill="#6BFC63" width="13.44" height="13.44"/>
		<rect x="294.269" y="58.532" fill="#6BFC63" width="13.439" height="13.44"/>
	</g>
	<g>
		<polyline fill="none" stroke="#000000" stroke-width="0.3" points="307.708,71.972 294.269,71.972 294.269,58.532 307.708,58.532 
					"/>
		<polyline fill="none" stroke="#000000" stroke-width="0.3" points="321.148,71.972 307.708,71.972 307.708,58.532 321.148,58.532 
					"/>
		<polyline fill="none" stroke="#000000" stroke-width="0.3" points="334.588,71.972 321.148,71.972 321.148,58.532 334.588,58.532 
					"/>
		<polyline fill="none" stroke="#000000" stroke-width="0.3" points="348.028,71.972 334.588,71.972 334.588,58.532 348.028,58.532 
					"/>
		<polyline fill="none" stroke="#000000" stroke-width="0.3" points="361.468,71.972 348.028,71.972 348.028,58.532 361.468,58.532 
					"/>
		<polyline fill="none" stroke="#000000" stroke-width="0.3" points="374.908,71.972 361.468,71.972 361.468,58.532 374.908,58.532 
					"/>
		<rect x="374.908" y="58.532" fill="none" stroke="#000000" stroke-width="0.3" width="13.439" height="13.44"/>
	</g>
</g>
<path fill="none" stroke="#000000" stroke-width="0.3" d="M401.781,58.538"/>
<g id="XMLID_12_">
	<g>
		<rect x="374.908" y="123.812" fill="#868EFF" width="13.439" height="13.44"/>
		<rect x="361.468" y="123.812" fill="#868EFF" width="13.44" height="13.44"/>
		<rect x="348.028" y="123.812" fill="#868EFF" width="13.439" height="13.44"/>
		<rect x="334.588" y="123.812" fill="#868EFF" width="13.44" height="13.44"/>
		<rect x="321.148" y="123.812" fill="#868EFF" width="13.439" height="13.44"/>
		<rect x="307.708" y="123.812" fill="#868EFF" width="13.44" height="13.44"/>
		<rect x="294.268" y="123.812" fill="#868EFF" width="13.44" height="13.44"/>
	</g>
	<g>
		<polyline fill="none" stroke="#000000" stroke-width="0.3" points="307.708,137.252 294.268,137.252 294.268,123.812 
			307.708,123.812 		"/>
		<polyline fill="none" stroke="#000000" stroke-width="0.3" points="321.148,137.252 307.708,137.252 307.708,123.812 
			321.148,123.812 		"/>
		<polyline fill="none" stroke="#000000" stroke-width="0.3" points="334.588,137.252 321.148,137.252 321.148,123.812 
			334.588,123.812 		"/>
		<polyline fill="none" stroke="#000000" stroke-width="0.3" points="348.028,137.252 334.588,137.252 334.588,123.812 
			348.028,123.812 		"/>
		<polyline fill="none" stroke="#000000" stroke-width="0.3" points="361.468,137.252 348.028,137.252 348.028,123.812 
			361.468,123.812 		"/>
		<polyline fill="none" stroke="#000000" stroke-width="0.3" points="374.908,137.252 361.468,137.252 361.468,123.812 
			374.908,123.812 		"/>
		<rect x="374.908" y="123.812" fill="none" stroke="#000000" stroke-width="0.3" width="13.439" height="13.44"/>
	</g>
</g>
<g>
	<g>
		<path d="M299.313,65.253c0-0.542,0.056-0.978,0.167-1.309s0.276-0.585,0.497-0.763c0.22-0.178,0.496-0.267,0.83-0.267
			c0.245,0,0.461,0.049,0.648,0.148c0.186,0.099,0.339,0.241,0.459,0.428c0.119,0.186,0.214,0.413,0.283,0.681
			c0.068,0.268,0.103,0.628,0.103,1.082c0,0.537-0.056,0.971-0.165,1.302c-0.111,0.331-0.275,0.586-0.496,0.765
			c-0.22,0.179-0.497,0.269-0.832,0.269c-0.442,0-0.789-0.157-1.041-0.472C299.464,66.735,299.313,66.113,299.313,65.253z
			 M299.895,65.255c0,0.753,0.088,1.253,0.263,1.501c0.176,0.247,0.393,0.371,0.65,0.371c0.257,0,0.473-0.125,0.648-0.373
			c0.176-0.249,0.264-0.749,0.264-1.5c0-0.753-0.088-1.253-0.263-1.5s-0.394-0.371-0.656-0.371c-0.257,0-0.464,0.109-0.618,0.327
			C299.991,63.989,299.895,64.504,299.895,65.255z"/>
	</g>
	<g>
		<path d="M314.44,67.589h-0.563v-3.584c-0.135,0.129-0.313,0.259-0.532,0.388c-0.22,0.129-0.417,0.226-0.593,0.291v-0.544
			c0.314-0.147,0.59-0.327,0.826-0.537c0.234-0.21,0.401-0.415,0.5-0.613h0.361V67.589z"/>
	</g>
	<g>
		<path d="M393.394,63.608v-0.543h2.969v0.44c-0.291,0.311-0.58,0.724-0.865,1.238c-0.287,0.515-0.508,1.043-0.664,1.587
			c-0.111,0.383-0.184,0.803-0.215,1.259h-0.581c0.007-0.36,0.077-0.796,0.212-1.306s0.329-1.002,0.582-1.477
			c0.252-0.474,0.521-0.874,0.807-1.199H393.394z"/>
	</g>
	<g>
		<path d="M329.231,67.045v0.544h-3.037c-0.005-0.136,0.018-0.267,0.065-0.392c0.077-0.207,0.202-0.41,0.372-0.61
			c0.171-0.2,0.416-0.431,0.738-0.692c0.498-0.409,0.834-0.733,1.01-0.971c0.176-0.237,0.264-0.463,0.264-0.676
			c0-0.222-0.08-0.41-0.239-0.563c-0.159-0.152-0.368-0.229-0.624-0.229c-0.271,0-0.488,0.082-0.652,0.244
			c-0.162,0.163-0.244,0.388-0.246,0.675l-0.582-0.063c0.039-0.431,0.189-0.76,0.448-0.986s0.607-0.339,1.044-0.339
			c0.441,0,0.791,0.122,1.047,0.366c0.258,0.244,0.387,0.546,0.387,0.906c0,0.183-0.039,0.364-0.113,0.541
			c-0.075,0.177-0.2,0.364-0.375,0.559c-0.174,0.196-0.464,0.464-0.868,0.806c-0.339,0.283-0.556,0.475-0.651,0.576
			c-0.096,0.101-0.176,0.202-0.238,0.304H329.231z"/>
	</g>
	<g>
		<path d="M339.634,66.295l0.563-0.075c0.064,0.319,0.174,0.548,0.327,0.689s0.343,0.211,0.567,0.211
			c0.266,0,0.49-0.091,0.671-0.274s0.271-0.41,0.271-0.68c0-0.258-0.085-0.47-0.253-0.638c-0.168-0.167-0.383-0.251-0.643-0.251
			c-0.105,0-0.238,0.021-0.396,0.063l0.063-0.494c0.037,0.004,0.068,0.006,0.091,0.006c0.239,0,0.454-0.063,0.646-0.187
			c0.191-0.124,0.287-0.316,0.287-0.576c0-0.206-0.07-0.375-0.209-0.51c-0.14-0.135-0.319-0.202-0.539-0.202
			c-0.219,0-0.4,0.069-0.547,0.206c-0.145,0.138-0.238,0.344-0.28,0.619l-0.563-0.1c0.069-0.377,0.226-0.669,0.469-0.877
			c0.243-0.207,0.547-0.311,0.909-0.311c0.25,0,0.48,0.053,0.691,0.16c0.21,0.107,0.371,0.253,0.482,0.438s0.167,0.381,0.167,0.589
			c0,0.197-0.054,0.377-0.159,0.539c-0.106,0.162-0.264,0.291-0.473,0.386c0.271,0.063,0.482,0.192,0.632,0.389
			s0.226,0.443,0.226,0.739c0,0.4-0.146,0.739-0.438,1.018c-0.293,0.278-0.661,0.417-1.107,0.417c-0.401,0-0.735-0.12-1.001-0.36
			S339.671,66.678,339.634,66.295z"/>
	</g>
	<g>
		<path d="M355.067,67.589v-1.1h-1.994v-0.519l2.094-2.962h0.463v2.962h0.619v0.519h-0.619v1.1H355.067z M355.067,65.971v-2.07
			l-1.439,2.07H355.067z"/>
	</g>
	<g>
		<path d="M366.513,66.308l0.594-0.044c0.044,0.287,0.145,0.502,0.303,0.646s0.35,0.216,0.576,0.216
			c0.273,0,0.502-0.102,0.688-0.306s0.277-0.475,0.277-0.813c0-0.321-0.088-0.574-0.267-0.76c-0.178-0.185-0.413-0.278-0.708-0.278
			c-0.182,0-0.346,0.042-0.49,0.125s-0.258,0.192-0.341,0.325l-0.531-0.075l0.444-2.356h2.274v0.538h-1.827l-0.245,1.233
			c0.274-0.193,0.563-0.29,0.866-0.29c0.399,0,0.736,0.139,1.012,0.416s0.413,0.634,0.413,1.07c0,0.415-0.12,0.773-0.362,1.076
			c-0.294,0.372-0.695,0.557-1.203,0.557c-0.417,0-0.757-0.117-1.021-0.351C366.701,67.004,366.551,66.694,366.513,66.308z"/>
	</g>
	<g>
		<path d="M382.903,64.058l-0.563,0.044c-0.05-0.222-0.121-0.383-0.213-0.483c-0.151-0.161-0.339-0.242-0.563-0.242
			c-0.179,0-0.337,0.05-0.475,0.149c-0.175,0.129-0.313,0.317-0.416,0.564c-0.102,0.248-0.154,0.6-0.158,1.059
			c0.135-0.207,0.3-0.359,0.496-0.459c0.195-0.1,0.4-0.15,0.615-0.15c0.373,0,0.692,0.138,0.955,0.414
			c0.264,0.276,0.396,0.633,0.396,1.07c0,0.287-0.062,0.555-0.187,0.801c-0.123,0.247-0.293,0.436-0.51,0.567
			s-0.463,0.197-0.738,0.197c-0.469,0-0.852-0.172-1.146-0.517c-0.296-0.345-0.443-0.913-0.443-1.704
			c0-0.885,0.163-1.528,0.491-1.93c0.286-0.35,0.671-0.524,1.155-0.524c0.361,0,0.657,0.102,0.889,0.304
			C382.72,63.421,382.858,63.701,382.903,64.058z M380.604,66.028c0,0.194,0.041,0.379,0.122,0.556
			c0.082,0.177,0.197,0.312,0.343,0.404c0.146,0.093,0.301,0.139,0.464,0.139c0.238,0,0.443-0.096,0.611-0.287
			c0.17-0.191,0.254-0.451,0.254-0.78c0-0.316-0.084-0.565-0.25-0.747c-0.168-0.182-0.379-0.273-0.637-0.273
			c-0.252,0-0.467,0.091-0.643,0.273C380.691,65.495,380.604,65.733,380.604,66.028z"/>
	</g>
</g>
<path fill="none" stroke="#FFFFFF" stroke-width="0.7" d="M395.167,39.127c0,26.6-98.2-9.4-94.184,17.336"/>
<path fill="#FFFFFF" stroke="#FFFFFF" stroke-width="0.3" d="M300.983,58.095l-1.439-3.456h2.881L300.983,58.095z"/>
<g>
	<g>
		<path d="M299.31,32.46c0-0.542,0.056-0.978,0.167-1.309s0.276-0.585,0.497-0.763c0.22-0.178,0.496-0.267,0.83-0.267
			c0.245,0,0.461,0.049,0.648,0.148c0.186,0.099,0.339,0.241,0.459,0.428c0.119,0.186,0.214,0.413,0.283,0.681
			c0.068,0.268,0.103,0.628,0.103,1.082c0,0.537-0.056,0.971-0.165,1.302c-0.111,0.331-0.275,0.586-0.496,0.765
			c-0.22,0.179-0.497,0.269-0.832,0.269c-0.442,0-0.789-0.157-1.041-0.472C299.46,33.942,299.31,33.32,299.31,32.46z
			 M299.891,32.462c0,0.753,0.088,1.253,0.263,1.501c0.176,0.247,0.393,0.371,0.65,0.371c0.257,0,0.473-0.125,0.648-0.373
			c0.176-0.249,0.264-0.749,0.264-1.5c0-0.753-0.088-1.253-0.263-1.5s-0.394-0.371-0.656-0.371c-0.257,0-0.464,0.109-0.618,0.327
			C299.987,31.196,299.891,31.711,299.891,32.462z"/>
	</g>
	<g>
		<path d="M314.437,34.796h-0.563v-3.584c-0.135,0.129-0.313,0.259-0.532,0.388c-0.22,0.129-0.417,0.226-0.593,0.291v-0.544
			c0.314-0.147,0.59-0.327,0.826-0.537c0.234-0.21,0.401-0.415,0.5-0.613h0.361V34.796z"/>
	</g>
	<g>
		<path d="M393.39,30.815v-0.543h2.969v0.44c-0.291,0.311-0.58,0.724-0.865,1.238c-0.287,0.515-0.508,1.043-0.664,1.587
			c-0.111,0.383-0.184,0.803-0.215,1.259h-0.581c0.007-0.36,0.077-0.796,0.212-1.306s0.329-1.002,0.582-1.477
			c0.252-0.474,0.521-0.874,0.807-1.199H393.39z"/>
	</g>
	<g>
		<path d="M329.228,34.252v0.544h-3.037c-0.005-0.136,0.018-0.267,0.065-0.392c0.077-0.207,0.202-0.41,0.372-0.61
			c0.171-0.2,0.416-0.431,0.738-0.692c0.498-0.409,0.834-0.733,1.01-0.971c0.176-0.237,0.264-0.463,0.264-0.676
			c0-0.222-0.08-0.41-0.239-0.563c-0.159-0.152-0.368-0.229-0.624-0.229c-0.271,0-0.488,0.082-0.652,0.244
			c-0.162,0.163-0.244,0.388-0.246,0.675l-0.582-0.063c0.039-0.431,0.189-0.76,0.448-0.986s0.607-0.339,1.044-0.339
			c0.441,0,0.791,0.122,1.047,0.366c0.258,0.244,0.387,0.546,0.387,0.906c0,0.183-0.039,0.364-0.113,0.541
			c-0.075,0.177-0.2,0.364-0.375,0.559c-0.174,0.196-0.464,0.464-0.868,0.806c-0.339,0.283-0.556,0.475-0.651,0.576
			c-0.096,0.101-0.176,0.202-0.238,0.304H329.228z"/>
	</g>
	<g>
		<path d="M339.63,33.502l0.563-0.075c0.064,0.319,0.174,0.548,0.327,0.689s0.343,0.211,0.567,0.211c0.266,0,0.49-0.091,0.671-0.274
			s0.271-0.41,0.271-0.68c0-0.258-0.085-0.47-0.253-0.638c-0.168-0.167-0.383-0.251-0.643-0.251c-0.105,0-0.238,0.021-0.396,0.063
			l0.063-0.494c0.037,0.004,0.068,0.006,0.091,0.006c0.239,0,0.454-0.063,0.646-0.187c0.191-0.124,0.287-0.316,0.287-0.576
			c0-0.206-0.07-0.375-0.209-0.51c-0.14-0.135-0.319-0.202-0.539-0.202c-0.219,0-0.4,0.069-0.547,0.206
			c-0.145,0.138-0.238,0.344-0.28,0.619l-0.563-0.1c0.069-0.377,0.226-0.669,0.469-0.877c0.243-0.207,0.547-0.311,0.909-0.311
			c0.25,0,0.48,0.053,0.691,0.16c0.21,0.107,0.371,0.253,0.482,0.438s0.167,0.381,0.167,0.589c0,0.197-0.054,0.377-0.159,0.539
			c-0.106,0.162-0.264,0.291-0.473,0.386c0.271,0.063,0.482,0.192,0.632,0.389s0.226,0.443,0.226,0.739
			c0,0.4-0.146,0.739-0.438,1.018c-0.293,0.278-0.661,0.417-1.107,0.417c-0.401,0-0.735-0.12-1.001-0.36
			S339.667,33.885,339.63,33.502z"/>
	</g>
	<g>
		<path d="M355.063,34.796v-1.1h-1.994v-0.519l2.094-2.962h0.463v2.962h0.619v0.519h-0.619v1.1H355.063z M355.063,33.178v-2.07
			l-1.439,2.07H355.063z"/>
	</g>
	<g>
		<path d="M366.509,33.515l0.594-0.044c0.044,0.287,0.145,0.502,0.303,0.646s0.35,0.216,0.576,0.216
			c0.273,0,0.502-0.102,0.688-0.306s0.277-0.475,0.277-0.813c0-0.321-0.088-0.574-0.267-0.76c-0.178-0.185-0.413-0.278-0.708-0.278
			c-0.182,0-0.346,0.042-0.49,0.125s-0.258,0.192-0.341,0.325l-0.531-0.075l0.444-2.356h2.274v0.538h-1.827l-0.245,1.233
			c0.274-0.193,0.563-0.29,0.866-0.29c0.399,0,0.736,0.139,1.012,0.416s0.413,0.634,0.413,1.07c0,0.415-0.12,0.773-0.362,1.076
			c-0.294,0.372-0.695,0.557-1.203,0.557c-0.417,0-0.757-0.117-1.021-0.351C366.697,34.211,366.547,33.901,366.509,33.515z"/>
	</g>
	<g>
		<path d="M382.899,31.265l-0.563,0.044c-0.05-0.222-0.121-0.383-0.213-0.483c-0.151-0.161-0.339-0.242-0.563-0.242
			c-0.179,0-0.337,0.05-0.475,0.149c-0.175,0.129-0.313,0.317-0.416,0.564c-0.102,0.248-0.154,0.6-0.158,1.059
			c0.135-0.207,0.3-0.359,0.496-0.459c0.195-0.1,0.4-0.15,0.615-0.15c0.373,0,0.692,0.138,0.955,0.414
			c0.264,0.276,0.396,0.633,0.396,1.07c0,0.287-0.062,0.555-0.187,0.801c-0.123,0.247-0.293,0.436-0.51,0.567
			s-0.463,0.197-0.738,0.197c-0.469,0-0.852-0.172-1.146-0.517c-0.296-0.345-0.443-0.913-0.443-1.704
			c0-0.885,0.163-1.528,0.491-1.93c0.286-0.35,0.671-0.524,1.155-0.524c0.361,0,0.657,0.102,0.889,0.304
			C382.716,30.628,382.854,30.908,382.899,31.265z M380.6,33.235c0,0.194,0.041,0.379,0.122,0.556
			c0.082,0.177,0.197,0.312,0.343,0.404c0.146,0.093,0.301,0.139,0.464,0.139c0.238,0,0.443-0.096,0.611-0.287
			c0.17-0.191,0.254-0.451,0.254-0.78c0-0.316-0.084-0.565-0.25-0.747c-0.168-0.182-0.379-0.273-0.637-0.273
			c-0.252,0-0.467,0.091-0.643,0.273C380.688,32.702,380.6,32.94,380.6,33.235z"/>
	</g>
</g>
<path fill="none" stroke="#FFFFFF" stroke-width="0.7" d="M395.167,104.509c0,26.6-98.2-9.401-94.184,17.335"/>
<path fill="#FFFFFF" stroke="#FFFFFF" stroke-width="0.3" d="M300.983,123.812l-1.439-3.456h2.881L300.983,123.812z"/>
<path fill="none" stroke="#FFFFFF" stroke-width="0.7" d="M395.167,137.261c0,26.601-98.2-9.399-94.184,17.335"/>
<path fill="#FFFFFF" stroke="#FFFFFF" stroke-width="0.3" d="M300.983,156.495l-1.439-3.457h2.881L300.983,156.495z"/>
<g>
	<g>
		<path d="M299.498,130.532c0-0.54,0.056-0.977,0.167-1.308s0.277-0.586,0.497-0.764c0.22-0.179,0.497-0.268,0.829-0.268
			c0.246,0,0.463,0.05,0.648,0.148c0.188,0.099,0.34,0.242,0.46,0.428c0.12,0.187,0.214,0.413,0.282,0.682
			c0.069,0.268,0.104,0.628,0.104,1.081c0,0.538-0.055,0.972-0.166,1.304c-0.109,0.329-0.275,0.586-0.494,0.764
			c-0.221,0.18-0.498,0.269-0.834,0.269c-0.441,0-0.788-0.156-1.04-0.472C299.649,132.013,299.498,131.391,299.498,130.532z
			 M300.079,130.534c0,0.753,0.088,1.253,0.264,1.501c0.176,0.247,0.392,0.371,0.648,0.371c0.258,0,0.475-0.124,0.65-0.372
			c0.175-0.249,0.263-0.749,0.263-1.5c0-0.753-0.087-1.253-0.263-1.5c-0.175-0.249-0.394-0.372-0.656-0.372
			c-0.258,0-0.463,0.109-0.618,0.328C300.175,129.268,300.079,129.784,300.079,130.534z"/>
	</g>
	<g>
		<path d="M314.626,132.868h-0.563v-3.584c-0.136,0.13-0.313,0.259-0.533,0.388c-0.22,0.129-0.417,0.227-0.592,0.29v-0.544
			c0.314-0.146,0.59-0.326,0.824-0.537c0.236-0.209,0.402-0.414,0.5-0.612h0.363V132.868z"/>
	</g>
	<g>
		<path d="M393.578,128.886v-0.543h2.969v0.44c-0.291,0.311-0.579,0.724-0.866,1.237c-0.285,0.516-0.506,1.044-0.662,1.588
			c-0.113,0.384-0.184,0.803-0.215,1.259h-0.582c0.006-0.359,0.077-0.795,0.213-1.306c0.135-0.51,0.328-1.002,0.581-1.477
			c0.253-0.474,0.521-0.874,0.806-1.199H393.578z"/>
	</g>
	<g>
		<path d="M329.416,132.324v0.544h-3.038c-0.004-0.136,0.018-0.266,0.066-0.391c0.078-0.208,0.201-0.411,0.373-0.61
			c0.17-0.2,0.416-0.43,0.736-0.692c0.498-0.409,0.836-0.733,1.012-0.971s0.264-0.462,0.264-0.675c0-0.224-0.08-0.411-0.24-0.563
			c-0.16-0.153-0.367-0.229-0.625-0.229c-0.271,0-0.488,0.081-0.65,0.243c-0.163,0.163-0.246,0.388-0.248,0.676l-0.58-0.063
			c0.039-0.432,0.188-0.76,0.447-0.986c0.26-0.225,0.607-0.339,1.045-0.339c0.44,0,0.789,0.122,1.047,0.365
			c0.257,0.244,0.385,0.546,0.385,0.906c0,0.183-0.037,0.364-0.112,0.541s-0.2,0.364-0.374,0.56
			c-0.176,0.195-0.465,0.464-0.869,0.805c-0.338,0.282-0.555,0.475-0.651,0.576c-0.097,0.1-0.175,0.201-0.237,0.303H329.416z"/>
	</g>
	<g>
		<path d="M339.817,131.574l0.563-0.074c0.064,0.318,0.174,0.548,0.328,0.688s0.344,0.211,0.568,0.211
			c0.266,0,0.489-0.091,0.67-0.274c0.182-0.184,0.271-0.41,0.271-0.68c0-0.258-0.084-0.471-0.252-0.638
			c-0.169-0.167-0.383-0.252-0.643-0.252c-0.107,0-0.238,0.022-0.396,0.063l0.063-0.493c0.037,0.004,0.066,0.006,0.09,0.006
			c0.239,0,0.455-0.063,0.646-0.186c0.191-0.125,0.287-0.317,0.287-0.577c0-0.204-0.069-0.375-0.209-0.509
			c-0.14-0.137-0.319-0.203-0.54-0.203c-0.218,0-0.4,0.068-0.545,0.206c-0.146,0.138-0.239,0.344-0.281,0.618l-0.563-0.1
			c0.068-0.377,0.225-0.669,0.469-0.877c0.244-0.206,0.547-0.311,0.91-0.311c0.25,0,0.479,0.053,0.689,0.161
			c0.211,0.106,0.372,0.253,0.483,0.438s0.167,0.381,0.167,0.589c0,0.197-0.053,0.377-0.159,0.539s-0.264,0.291-0.472,0.386
			c0.271,0.063,0.48,0.192,0.631,0.39c0.15,0.196,0.225,0.443,0.225,0.738c0,0.4-0.145,0.739-0.438,1.018
			c-0.291,0.278-0.66,0.417-1.105,0.417c-0.402,0-0.736-0.12-1.002-0.359C340.007,132.268,339.855,131.957,339.817,131.574z"/>
	</g>
	<g>
		<path d="M355.252,132.868v-1.1h-1.993v-0.519l2.094-2.963h0.462v2.963h0.618v0.519h-0.618v1.1H355.252z M355.252,131.25v-2.07
			l-1.44,2.07H355.252z"/>
	</g>
	<g>
		<path d="M366.698,131.586l0.594-0.044c0.043,0.288,0.145,0.502,0.302,0.647c0.157,0.144,0.351,0.216,0.577,0.216
			c0.271,0,0.502-0.102,0.687-0.307c0.186-0.203,0.278-0.475,0.278-0.813c0-0.32-0.09-0.573-0.268-0.76
			c-0.178-0.184-0.414-0.277-0.707-0.277c-0.184,0-0.347,0.042-0.49,0.125c-0.145,0.084-0.258,0.191-0.342,0.324l-0.531-0.074
			l0.443-2.356h2.275v0.537h-1.826l-0.246,1.233c0.275-0.192,0.564-0.289,0.865-0.289c0.4,0,0.738,0.139,1.014,0.415
			c0.275,0.278,0.412,0.635,0.412,1.07c0,0.416-0.121,0.773-0.362,1.077c-0.294,0.37-0.694,0.556-1.203,0.556
			c-0.417,0-0.757-0.117-1.021-0.35C366.886,132.284,366.735,131.972,366.698,131.586z"/>
	</g>
	<g>
		<path d="M383.089,129.336l-0.563,0.044c-0.051-0.222-0.121-0.383-0.213-0.482c-0.152-0.161-0.34-0.242-0.563-0.242
			c-0.18,0-0.338,0.05-0.475,0.149c-0.176,0.128-0.314,0.317-0.416,0.564s-0.155,0.6-0.16,1.058
			c0.136-0.206,0.301-0.359,0.496-0.459c0.196-0.101,0.401-0.15,0.615-0.15c0.375,0,0.693,0.139,0.957,0.414
			c0.264,0.276,0.395,0.633,0.395,1.07c0,0.287-0.063,0.555-0.186,0.802c-0.124,0.247-0.295,0.436-0.512,0.567
			c-0.217,0.131-0.462,0.196-0.736,0.196c-0.469,0-0.852-0.172-1.147-0.517c-0.296-0.344-0.444-0.913-0.444-1.703
			c0-0.885,0.164-1.528,0.492-1.93c0.286-0.351,0.672-0.525,1.156-0.525c0.36,0,0.656,0.102,0.887,0.305
			C382.903,128.699,383.042,128.98,383.089,129.336z M380.788,131.307c0,0.193,0.041,0.38,0.123,0.556
			c0.082,0.177,0.195,0.312,0.342,0.403c0.146,0.094,0.301,0.14,0.465,0.14c0.238,0,0.441-0.096,0.611-0.288
			c0.168-0.19,0.253-0.45,0.253-0.779c0-0.315-0.083-0.565-0.251-0.747c-0.166-0.183-0.378-0.273-0.635-0.273
			c-0.253,0-0.468,0.091-0.644,0.273C380.876,130.773,380.788,131.011,380.788,131.307z"/>
	</g>
</g>
<g>
	<g>
		<path d="M299.577,97.791c0-0.542,0.055-0.978,0.166-1.309c0.111-0.331,0.277-0.585,0.498-0.763
			c0.219-0.178,0.496-0.267,0.829-0.267c0.245,0,0.462,0.049,0.648,0.148c0.187,0.099,0.339,0.241,0.46,0.428
			c0.119,0.186,0.213,0.413,0.282,0.681c0.069,0.267,0.103,0.628,0.103,1.083c0,0.536-0.055,0.97-0.165,1.302
			c-0.11,0.331-0.275,0.586-0.495,0.766c-0.221,0.178-0.498,0.269-0.833,0.269c-0.442,0-0.788-0.158-1.04-0.472
			C299.728,99.272,299.577,98.65,299.577,97.791z M300.157,97.792c0,0.753,0.088,1.253,0.264,1.5
			c0.176,0.247,0.393,0.372,0.649,0.372s0.474-0.125,0.649-0.374s0.264-0.749,0.264-1.499c0-0.753-0.088-1.253-0.264-1.501
			c-0.174-0.248-0.393-0.371-0.656-0.371c-0.257,0-0.463,0.109-0.617,0.327C300.254,96.526,300.157,97.041,300.157,97.792z"/>
	</g>
	<g>
		<path d="M314.704,100.126h-0.563v-3.585c-0.135,0.129-0.313,0.259-0.533,0.388c-0.219,0.129-0.416,0.226-0.592,0.291v-0.543
			c0.314-0.148,0.59-0.327,0.825-0.538s0.401-0.415,0.5-0.613h0.362V100.126z"/>
	</g>
	<g>
		<path d="M393.657,96.145v-0.544h2.969v0.44c-0.291,0.311-0.58,0.723-0.866,1.238c-0.286,0.514-0.507,1.044-0.663,1.588
			c-0.112,0.383-0.184,0.803-0.215,1.259H394.3c0.007-0.361,0.078-0.797,0.213-1.306c0.135-0.511,0.328-1.003,0.582-1.477
			c0.252-0.474,0.521-0.874,0.806-1.198H393.657z"/>
	</g>
	<g>
		<path d="M329.495,99.583v0.544h-3.038c-0.005-0.136,0.018-0.267,0.065-0.392c0.078-0.207,0.202-0.41,0.373-0.609
			c0.17-0.2,0.416-0.431,0.737-0.692c0.498-0.409,0.835-0.733,1.011-0.97c0.176-0.238,0.264-0.464,0.264-0.676
			c0-0.222-0.08-0.41-0.24-0.563c-0.159-0.152-0.367-0.229-0.624-0.229c-0.271,0-0.488,0.082-0.651,0.244
			c-0.162,0.162-0.245,0.387-0.247,0.675l-0.581-0.063c0.039-0.431,0.189-0.76,0.447-0.986c0.26-0.226,0.607-0.339,1.045-0.339
			c0.441,0,0.79,0.122,1.047,0.366c0.258,0.244,0.386,0.546,0.386,0.906c0,0.184-0.038,0.364-0.112,0.541
			c-0.076,0.178-0.201,0.364-0.375,0.559c-0.175,0.197-0.465,0.464-0.869,0.806c-0.338,0.283-0.555,0.473-0.65,0.575
			c-0.097,0.102-0.176,0.202-0.238,0.305H329.495z"/>
	</g>
	<g>
		<path d="M339.896,98.833l0.563-0.075c0.064,0.319,0.174,0.548,0.327,0.689c0.154,0.141,0.344,0.211,0.568,0.211
			c0.266,0,0.49-0.092,0.67-0.275c0.182-0.183,0.271-0.41,0.271-0.68c0-0.258-0.084-0.47-0.252-0.639
			c-0.168-0.167-0.383-0.25-0.643-0.25c-0.106,0-0.238,0.021-0.396,0.063l0.063-0.494c0.037,0.004,0.067,0.006,0.09,0.006
			c0.24,0,0.455-0.062,0.646-0.187c0.191-0.124,0.287-0.316,0.287-0.576c0-0.206-0.07-0.375-0.209-0.51
			c-0.141-0.135-0.32-0.202-0.54-0.202c-0.218,0-0.4,0.069-0.546,0.206c-0.146,0.138-0.238,0.344-0.281,0.619l-0.563-0.1
			c0.069-0.377,0.226-0.669,0.469-0.876c0.244-0.207,0.547-0.311,0.91-0.311c0.25,0,0.48,0.053,0.69,0.161
			c0.21,0.107,0.372,0.252,0.483,0.438s0.166,0.381,0.166,0.589c0,0.197-0.053,0.377-0.158,0.539
			c-0.107,0.163-0.264,0.292-0.473,0.387c0.271,0.063,0.481,0.192,0.631,0.389c0.15,0.197,0.226,0.442,0.226,0.739
			c0,0.4-0.146,0.739-0.438,1.018c-0.292,0.278-0.661,0.417-1.106,0.417c-0.402,0-0.736-0.12-1.002-0.361
			S339.935,99.214,339.896,98.833z"/>
	</g>
	<g>
		<path d="M355.331,100.126v-1.1h-1.994v-0.519l2.094-2.963h0.463v2.963h0.618v0.519h-0.618v1.1H355.331z M355.331,98.508v-2.07
			l-1.44,2.07H355.331z"/>
	</g>
	<g>
		<path d="M366.776,98.845l0.594-0.044c0.043,0.286,0.145,0.502,0.303,0.646c0.157,0.146,0.35,0.217,0.576,0.217
			c0.272,0,0.502-0.103,0.688-0.306c0.186-0.205,0.277-0.475,0.277-0.813c0-0.322-0.089-0.575-0.268-0.76
			c-0.178-0.186-0.413-0.278-0.707-0.278c-0.183,0-0.346,0.041-0.49,0.125c-0.145,0.083-0.258,0.192-0.342,0.325l-0.531-0.075
			l0.444-2.357h2.274v0.538h-1.826l-0.246,1.234c0.275-0.194,0.564-0.29,0.866-0.29c0.399,0,0.737,0.138,1.013,0.416
			c0.275,0.276,0.412,0.634,0.412,1.07c0,0.414-0.12,0.773-0.361,1.075c-0.295,0.372-0.695,0.558-1.203,0.558
			c-0.418,0-0.758-0.117-1.021-0.352S366.813,99.231,366.776,98.845z"/>
	</g>
	<g>
		<path d="M383.167,96.595l-0.563,0.044c-0.051-0.222-0.121-0.383-0.213-0.483c-0.152-0.161-0.34-0.242-0.563-0.242
			c-0.18,0-0.338,0.05-0.475,0.149c-0.176,0.129-0.314,0.317-0.416,0.564c-0.102,0.247-0.154,0.6-0.159,1.059
			c0.136-0.207,0.3-0.36,0.496-0.46s0.401-0.15,0.615-0.15c0.374,0,0.692,0.138,0.956,0.415c0.264,0.275,0.395,0.633,0.395,1.07
			c0,0.287-0.062,0.555-0.186,0.801c-0.123,0.247-0.294,0.436-0.511,0.567s-0.462,0.197-0.737,0.197
			c-0.469,0-0.852-0.173-1.146-0.517c-0.297-0.345-0.444-0.913-0.444-1.703c0-0.886,0.163-1.529,0.491-1.931
			c0.287-0.35,0.672-0.524,1.156-0.524c0.361,0,0.656,0.102,0.888,0.304C382.982,95.958,383.121,96.238,383.167,96.595z
			 M380.866,98.565c0,0.194,0.041,0.378,0.123,0.555c0.082,0.177,0.196,0.313,0.342,0.405c0.146,0.092,0.301,0.139,0.465,0.139
			c0.238,0,0.442-0.097,0.611-0.288c0.169-0.192,0.254-0.452,0.254-0.78c0-0.317-0.084-0.565-0.251-0.749
			c-0.167-0.181-0.378-0.271-0.636-0.271c-0.252,0-0.467,0.09-0.643,0.271C380.954,98.031,380.866,98.27,380.866,98.565z"/>
	</g>
</g>
<g>
	<g>
		<path d="M299.498,163.172c0-0.541,0.056-0.977,0.167-1.309c0.111-0.33,0.277-0.586,0.497-0.764s0.497-0.268,0.829-0.268
			c0.246,0,0.463,0.051,0.648,0.148c0.188,0.1,0.34,0.242,0.46,0.428c0.12,0.188,0.214,0.414,0.282,0.682
			c0.069,0.268,0.104,0.629,0.104,1.082c0,0.537-0.055,0.971-0.166,1.303c-0.109,0.33-0.275,0.586-0.494,0.764
			c-0.221,0.18-0.498,0.27-0.834,0.27c-0.441,0-0.788-0.156-1.04-0.473C299.649,164.653,299.498,164.032,299.498,163.172z
			 M300.079,163.174c0,0.752,0.088,1.252,0.264,1.5s0.392,0.371,0.648,0.371c0.258,0,0.475-0.123,0.65-0.371
			c0.175-0.25,0.263-0.75,0.263-1.5c0-0.754-0.087-1.254-0.263-1.5c-0.175-0.25-0.394-0.373-0.656-0.373
			c-0.258,0-0.463,0.109-0.618,0.328C300.175,161.909,300.079,162.424,300.079,163.174z"/>
	</g>
	<g>
		<path d="M314.626,165.508h-0.563v-3.584c-0.136,0.129-0.313,0.258-0.533,0.387c-0.22,0.129-0.417,0.227-0.592,0.291v-0.545
			c0.314-0.146,0.59-0.326,0.824-0.537c0.236-0.209,0.402-0.414,0.5-0.611h0.363V165.508z"/>
	</g>
	<g>
		<path d="M393.578,161.526v-0.543h2.969v0.441c-0.291,0.311-0.579,0.723-0.866,1.236c-0.285,0.516-0.506,1.045-0.662,1.588
			c-0.113,0.385-0.184,0.803-0.215,1.26h-0.582c0.006-0.359,0.077-0.795,0.213-1.307c0.135-0.51,0.328-1.002,0.581-1.477
			c0.253-0.473,0.521-0.873,0.806-1.199H393.578z"/>
	</g>
	<g>
		<path d="M329.416,164.963v0.545h-3.038c-0.004-0.137,0.018-0.266,0.066-0.391c0.078-0.209,0.201-0.412,0.373-0.611
			c0.17-0.199,0.416-0.43,0.736-0.691c0.498-0.41,0.836-0.734,1.012-0.971c0.176-0.238,0.264-0.463,0.264-0.676
			c0-0.223-0.08-0.41-0.24-0.563s-0.367-0.229-0.625-0.229c-0.271,0-0.488,0.08-0.65,0.242c-0.163,0.164-0.246,0.389-0.248,0.676
			l-0.58-0.063c0.039-0.432,0.188-0.76,0.447-0.986c0.26-0.225,0.607-0.338,1.045-0.338c0.44,0,0.789,0.121,1.047,0.365
			c0.257,0.244,0.385,0.545,0.385,0.906c0,0.182-0.037,0.363-0.112,0.541c-0.075,0.176-0.2,0.363-0.374,0.559
			c-0.176,0.195-0.465,0.465-0.869,0.805c-0.338,0.283-0.555,0.475-0.651,0.576c-0.097,0.1-0.175,0.201-0.237,0.303H329.416z"/>
	</g>
	<g>
		<path d="M339.817,164.213l0.563-0.074c0.064,0.318,0.174,0.549,0.328,0.689s0.344,0.211,0.568,0.211
			c0.266,0,0.489-0.092,0.67-0.275c0.182-0.184,0.271-0.41,0.271-0.68c0-0.258-0.084-0.471-0.252-0.637
			c-0.169-0.168-0.383-0.252-0.643-0.252c-0.107,0-0.238,0.021-0.396,0.063l0.063-0.494c0.037,0.004,0.066,0.006,0.09,0.006
			c0.239,0,0.455-0.063,0.646-0.186c0.191-0.125,0.287-0.316,0.287-0.576c0-0.205-0.069-0.375-0.209-0.51
			c-0.14-0.137-0.319-0.203-0.54-0.203c-0.218,0-0.4,0.068-0.545,0.207c-0.146,0.137-0.239,0.344-0.281,0.617l-0.563-0.1
			c0.068-0.377,0.225-0.668,0.469-0.877c0.244-0.205,0.547-0.311,0.91-0.311c0.25,0,0.479,0.053,0.689,0.162
			c0.211,0.105,0.372,0.252,0.483,0.438c0.111,0.184,0.167,0.381,0.167,0.588c0,0.197-0.053,0.377-0.159,0.539
			s-0.264,0.291-0.472,0.387c0.271,0.063,0.48,0.191,0.631,0.389s0.225,0.443,0.225,0.738c0,0.4-0.145,0.74-0.438,1.018
			c-0.291,0.279-0.66,0.418-1.105,0.418c-0.402,0-0.736-0.121-1.002-0.359C340.007,164.909,339.855,164.596,339.817,164.213z"/>
	</g>
	<g>
		<path d="M355.252,165.508v-1.1h-1.993v-0.52l2.094-2.963h0.462v2.963h0.618v0.52h-0.618v1.1H355.252z M355.252,163.889v-2.07
			l-1.44,2.07H355.252z"/>
	</g>
	<g>
		<path d="M366.698,164.227l0.594-0.045c0.043,0.289,0.145,0.502,0.302,0.648c0.157,0.143,0.351,0.215,0.577,0.215
			c0.271,0,0.502-0.102,0.687-0.307c0.186-0.203,0.278-0.475,0.278-0.813c0-0.32-0.09-0.572-0.268-0.76
			c-0.178-0.184-0.414-0.277-0.707-0.277c-0.184,0-0.347,0.043-0.49,0.125c-0.145,0.084-0.258,0.191-0.342,0.324l-0.531-0.074
			l0.443-2.355h2.275v0.537h-1.826l-0.246,1.232c0.275-0.191,0.564-0.289,0.865-0.289c0.4,0,0.738,0.139,1.014,0.416
			s0.412,0.635,0.412,1.07c0,0.416-0.121,0.773-0.362,1.076c-0.294,0.371-0.694,0.557-1.203,0.557c-0.417,0-0.757-0.117-1.021-0.35
			C366.886,164.924,366.735,164.612,366.698,164.227z"/>
	</g>
	<g>
		<path d="M383.089,161.977l-0.563,0.043c-0.051-0.221-0.121-0.383-0.213-0.482c-0.152-0.16-0.34-0.242-0.563-0.242
			c-0.18,0-0.338,0.051-0.475,0.15c-0.176,0.127-0.314,0.316-0.416,0.564c-0.102,0.246-0.155,0.6-0.16,1.057
			c0.136-0.205,0.301-0.359,0.496-0.459c0.196-0.1,0.401-0.15,0.615-0.15c0.375,0,0.693,0.139,0.957,0.414
			c0.264,0.277,0.395,0.633,0.395,1.07c0,0.287-0.063,0.555-0.186,0.803c-0.124,0.246-0.295,0.436-0.512,0.566
			s-0.462,0.197-0.736,0.197c-0.469,0-0.852-0.172-1.147-0.518c-0.296-0.344-0.444-0.912-0.444-1.703
			c0-0.885,0.164-1.527,0.492-1.93c0.286-0.35,0.672-0.525,1.156-0.525c0.36,0,0.656,0.102,0.887,0.305
			C382.903,161.338,383.042,161.62,383.089,161.977z M380.788,163.948c0,0.193,0.041,0.379,0.123,0.555
			c0.082,0.178,0.195,0.313,0.342,0.404c0.146,0.094,0.301,0.139,0.465,0.139c0.238,0,0.441-0.096,0.611-0.287
			c0.168-0.191,0.253-0.451,0.253-0.779c0-0.316-0.083-0.566-0.251-0.748c-0.166-0.182-0.378-0.273-0.635-0.273
			c-0.253,0-0.468,0.092-0.644,0.273C380.876,163.413,380.788,163.651,380.788,163.948z"/>
	</g>
</g>
<g id="XMLID_22_" opacity="0.6">
	<g>
	</g>
	<g>
	</g>
</g>
<g id="XMLID_21_" opacity="0.6">
	<g>
	</g>
	<g>
	</g>
</g>
<g id="XMLID_20_" opacity="0.6">
	<g>
	</g>
	<g>
	</g>
</g>
<g id="XMLID_18_">
	<g>
		<rect x="388.341" y="201.173" fill="#FB86FF" width="13.439" height="13.439"/>
		<rect x="374.9" y="201.173" fill="#868EFF" width="13.44" height="13.439"/>
		<rect x="361.461" y="201.173" fill="#36FFF3" width="13.439" height="13.439"/>
		<rect x="348.021" y="201.173" fill="#6BFC63" width="13.44" height="13.439"/>
		<rect x="334.581" y="201.173" fill="#FFEB36" width="13.439" height="13.439"/>
	</g>
	<g>
		<polyline fill="none" stroke="#FFFFFF" stroke-width="0.3" points="334.581,214.613 321.141,214.613 321.141,201.173 
			334.581,201.173 		"/>
		<line fill="none" stroke="#000000" stroke-width="0.3" x1="361.461" y1="214.613" x2="348.021" y2="214.613"/>
		<line fill="none" stroke="#000000" stroke-width="0.3" x1="348.021" y1="201.173" x2="361.461" y2="201.173"/>
		<line fill="none" stroke="#000000" stroke-width="0.3" x1="388.341" y1="214.613" x2="374.9" y2="214.613"/>
		<line fill="none" stroke="#000000" stroke-width="0.3" x1="374.9" y1="201.173" x2="388.341" y2="201.173"/>
		<rect x="388.341" y="201.173" fill="none" stroke="#000000" stroke-width="0.3" width="13.439" height="13.439"/>
		<line fill="none" stroke="#000000" stroke-width="0.3" x1="334.581" y1="214.613" x2="334.581" y2="201.173"/>
		<polyline fill="none" stroke="#000000" stroke-width="0.3" points="334.581,201.173 348.021,201.173 348.021,214.613 
			334.581,214.613 		"/>
		<rect x="361.461" y="201.173" fill="none" stroke="#000000" stroke-width="0.3" width="13.439" height="13.439"/>
	</g>
</g>
<g>
	<path fill="#FFFFFF" d="M340.937,197.97v-5.731h0.757v5.731H340.937z"/>
</g>
<g>
	<path fill="#FFFFFF" d="M353.265,197.97v-5.731h0.757v5.731H353.265z"/>
	<path fill="#FFFFFF" d="M355.487,197.97v-5.731h0.757v5.731H355.487z"/>
</g>
<g>
	<path fill="#FFFFFF" d="M365.593,197.97v-5.731h0.757v5.731H365.593z"/>
	<path fill="#FFFFFF" d="M367.817,197.97v-5.731h0.756v5.731H367.817z"/>
	<path fill="#FFFFFF" d="M370.038,197.97v-5.731h0.757v5.731H370.038z"/>
</g>
<g>
	<path fill="#FFFFFF" d="M378.589,197.97v-5.731h0.756v5.731H378.589z"/>
	<path fill="#FFFFFF" d="M382.319,197.97l-2.217-5.731h0.822l1.488,4.165c0.121,0.334,0.221,0.647,0.303,0.938
		c0.087-0.313,0.189-0.626,0.307-0.938l1.546-4.165h0.774l-2.235,5.731H382.319z"/>
</g>
<g>
	<path fill="#FFFFFF" d="M394.666,197.97l-2.218-5.731h0.822l1.489,4.165c0.12,0.334,0.22,0.647,0.301,0.938
		c0.089-0.313,0.191-0.626,0.309-0.938l1.544-4.165h0.775l-2.236,5.731H394.666z"/>
</g>
<g>
	<path fill="#FFFFFF" d="M312.483,209.968l1.518-2.15l-1.404-2.006h0.865l0.656,0.982c0.119,0.187,0.215,0.336,0.285,0.452
		c0.117-0.166,0.223-0.316,0.318-0.45l0.693-0.984h0.844l-1.402,1.995l1.509,2.161h-0.859l-0.853-1.284l-0.207-0.317l-1.112,1.602
		H312.483z"/>
</g>
<g>
	<path fill="#FFFFFF" d="M324.022,209.2l0.707-0.094c0.081,0.398,0.217,0.686,0.41,0.861s0.43,0.264,0.71,0.264
		c0.333,0,0.612-0.114,0.841-0.343c0.227-0.229,0.339-0.513,0.339-0.85c0-0.322-0.104-0.588-0.315-0.797
		c-0.211-0.21-0.48-0.314-0.805-0.314c-0.133,0-0.299,0.026-0.496,0.078l0.078-0.618c0.047,0.005,0.085,0.008,0.113,0.008
		c0.299,0,0.565-0.078,0.805-0.233c0.238-0.156,0.357-0.396,0.357-0.72c0-0.258-0.088-0.471-0.261-0.64s-0.398-0.253-0.675-0.253
		c-0.271,0-0.5,0.086-0.682,0.258c-0.183,0.172-0.3,0.43-0.352,0.773l-0.706-0.125c0.086-0.472,0.281-0.838,0.586-1.098
		s0.685-0.39,1.138-0.39c0.313,0,0.602,0.067,0.863,0.201c0.264,0.134,0.465,0.316,0.604,0.549c0.141,0.231,0.209,0.477,0.209,0.737
		c0,0.247-0.064,0.472-0.197,0.675s-0.33,0.364-0.592,0.483c0.34,0.078,0.602,0.24,0.789,0.486c0.188,0.245,0.281,0.553,0.281,0.922
		c0,0.499-0.181,0.923-0.547,1.27c-0.363,0.347-0.824,0.521-1.383,0.521c-0.501,0-0.92-0.149-1.251-0.448
		C324.259,210.063,324.069,209.676,324.022,209.2z"/>
	<path fill="#FFFFFF" d="M331.116,210.718h-0.705v-4.479c-0.171,0.16-0.393,0.322-0.668,0.484c-0.273,0.16-0.52,0.281-0.738,0.362
		v-0.68c0.393-0.185,0.736-0.409,1.031-0.672s0.502-0.519,0.625-0.766h0.455V210.718z"/>
</g>
<g>
	<path d="M341.666,210.77h-0.706v-4.48c-0.17,0.162-0.392,0.324-0.666,0.484c-0.275,0.162-0.521,0.283-0.74,0.363v-0.68
		c0.394-0.185,0.737-0.408,1.031-0.672c0.295-0.263,0.504-0.518,0.625-0.766h0.456V210.77z"/>
</g>
<g>
	<path d="M381.962,210.77h-0.706v-4.48c-0.169,0.162-0.392,0.324-0.665,0.484c-0.275,0.162-0.522,0.283-0.741,0.363v-0.68
		c0.394-0.185,0.737-0.408,1.032-0.672c0.295-0.263,0.503-0.518,0.625-0.766h0.455V210.77z"/>
</g>
<g>
	<path d="M368.538,210.77h-0.707v-4.48c-0.169,0.162-0.391,0.324-0.665,0.484c-0.274,0.162-0.522,0.283-0.741,0.363v-0.68
		c0.395-0.185,0.738-0.408,1.033-0.672c0.294-0.263,0.502-0.518,0.625-0.766h0.455V210.77z"/>
</g>
<g>
	<path d="M355.106,210.77h-0.707v-4.48c-0.17,0.162-0.391,0.324-0.666,0.484c-0.274,0.162-0.521,0.283-0.74,0.363v-0.68
		c0.395-0.185,0.738-0.408,1.032-0.672c0.294-0.263,0.503-0.518,0.625-0.766h0.456V210.77z"/>
</g>
<g>
	<path d="M395.394,210.77h-0.705v-4.48c-0.17,0.162-0.393,0.324-0.666,0.484c-0.275,0.162-0.521,0.283-0.74,0.363v-0.68
		c0.393-0.185,0.736-0.408,1.031-0.672c0.295-0.263,0.504-0.518,0.625-0.766h0.455V210.77z"/>
</g>
<g id="XMLID_25_" opacity="0.6">
	<g>
	</g>
	<g>
	</g>
</g>
<g id="XMLID_24_" opacity="0.6">
	<g>
	</g>
	<g>
	</g>
</g>
<g id="XMLID_23_" opacity="0.6">
	<g>
	</g>
	<g>
	</g>
</g>
<g id="XMLID_19_">
	<g>
		<rect x="388.344" y="214.613" fill="#FB86FF" width="13.44" height="13.44"/>
		<rect x="374.904" y="214.613" fill="#868EFF" width="13.439" height="13.44"/>
		<rect x="361.464" y="214.613" fill="#36FFF3" width="13.44" height="13.44"/>
		<rect x="348.024" y="214.613" fill="#6BFC63" width="13.439" height="13.44"/>
		<rect x="334.584" y="214.613" fill="#FFEB36" width="13.44" height="13.44"/>
	</g>
	<g>
		<polyline fill="none" stroke="#FFFFFF" stroke-width="0.3" points="334.584,228.053 321.144,228.053 321.144,214.613 
			334.584,214.613 		"/>
		<line fill="none" stroke="#000000" stroke-width="0.3" x1="361.464" y1="228.053" x2="348.024" y2="228.053"/>
		<line fill="none" stroke="#000000" stroke-width="0.3" x1="348.024" y1="214.613" x2="361.464" y2="214.613"/>
		<polyline fill="none" stroke="#000000" stroke-width="0.3" points="374.904,228.053 361.464,228.053 361.464,214.613 
			374.904,214.613 		"/>
		<polyline fill="none" stroke="#000000" stroke-width="0.3" points="388.344,228.053 374.904,228.053 374.904,214.613 
			388.344,214.613 		"/>
		<rect x="388.344" y="214.613" fill="none" stroke="#000000" stroke-width="0.3" width="13.44" height="13.44"/>
		<line fill="none" stroke="#000000" stroke-width="0.3" x1="334.584" y1="228.053" x2="334.584" y2="214.613"/>
		<polyline fill="none" stroke="#000000" stroke-width="0.3" points="334.584,214.613 348.024,214.613 348.024,228.053 
			334.584,228.053 		"/>
	</g>
</g>
<g>
	<path fill="#FFFFFF" d="M323.659,222.64l0.707-0.094c0.081,0.398,0.217,0.685,0.41,0.86s0.43,0.265,0.71,0.265
		c0.333,0,0.612-0.115,0.841-0.344c0.227-0.229,0.339-0.511,0.339-0.85c0-0.321-0.104-0.587-0.315-0.797
		c-0.211-0.208-0.48-0.313-0.805-0.313c-0.133,0-0.299,0.026-0.496,0.078l0.078-0.618c0.047,0.005,0.085,0.008,0.113,0.008
		c0.299,0,0.565-0.078,0.805-0.234c0.238-0.156,0.357-0.396,0.357-0.721c0-0.256-0.088-0.469-0.261-0.638
		c-0.173-0.168-0.398-0.253-0.675-0.253c-0.271,0-0.5,0.086-0.682,0.258c-0.183,0.172-0.3,0.43-0.352,0.773l-0.706-0.125
		c0.086-0.474,0.281-0.839,0.586-1.099c0.305-0.259,0.685-0.389,1.138-0.389c0.313,0,0.602,0.065,0.863,0.2
		c0.264,0.134,0.465,0.317,0.604,0.548c0.141,0.231,0.209,0.479,0.209,0.738c0,0.246-0.064,0.472-0.197,0.675
		s-0.33,0.364-0.592,0.484c0.34,0.078,0.602,0.239,0.789,0.485s0.281,0.554,0.281,0.922c0,0.5-0.181,0.923-0.547,1.27
		c-0.363,0.348-0.824,0.521-1.383,0.521c-0.501,0-0.92-0.15-1.251-0.449C323.896,223.504,323.706,223.116,323.659,222.64z"/>
</g>
<g>
	<path d="M341.666,224.206h-0.706v-4.481c-0.17,0.163-0.392,0.323-0.666,0.484c-0.275,0.163-0.521,0.283-0.74,0.364v-0.68
		c0.394-0.186,0.737-0.409,1.031-0.672c0.295-0.264,0.504-0.519,0.625-0.766h0.456V224.206z"/>
</g>
<g>
	<path d="M381.962,224.206h-0.706v-4.481c-0.169,0.163-0.392,0.323-0.665,0.484c-0.275,0.163-0.522,0.283-0.741,0.364v-0.68
		c0.394-0.186,0.737-0.409,1.032-0.672c0.295-0.264,0.503-0.519,0.625-0.766h0.455V224.206z"/>
</g>
<g>
	<path d="M368.538,224.206h-0.707v-4.481c-0.169,0.163-0.391,0.323-0.665,0.484c-0.274,0.163-0.522,0.283-0.741,0.364v-0.68
		c0.395-0.186,0.738-0.409,1.033-0.672c0.294-0.264,0.502-0.519,0.625-0.766h0.455V224.206z"/>
</g>
<g>
	<path d="M355.106,224.206h-0.707v-4.481c-0.17,0.163-0.391,0.323-0.666,0.484c-0.274,0.163-0.521,0.283-0.74,0.364v-0.68
		c0.395-0.186,0.738-0.409,1.032-0.672c0.294-0.264,0.503-0.519,0.625-0.766h0.456V224.206z"/>
</g>
<g id="XMLID_29_" opacity="0.6">
	<g>
	</g>
	<g>
	</g>
</g>
<g id="XMLID_28_" opacity="0.6">
	<g>
	</g>
	<g>
	</g>
</g>
<g id="XMLID_27_" opacity="0.6">
	<g>
	</g>
	<g>
	</g>
</g>
<g id="XMLID_26_">
	<g>
		<rect x="388.348" y="228.052" fill="#FB86FF" width="13.44" height="13.44"/>
		<rect x="374.908" y="228.052" fill="#868EFF" width="13.439" height="13.44"/>
		<rect x="361.468" y="228.052" fill="#36FFF3" width="13.44" height="13.44"/>
		<rect x="348.028" y="228.052" fill="#6BFC63" width="13.439" height="13.44"/>
		<rect x="334.588" y="228.052" fill="#FFEB36" width="13.44" height="13.44"/>
	</g>
	<g>
		<polyline fill="none" stroke="#FFFFFF" stroke-width="0.3" points="334.588,241.493 321.147,241.493 321.147,228.052 
			334.588,228.052 		"/>
		<line fill="none" stroke="#000000" stroke-width="0.3" x1="361.468" y1="241.493" x2="348.028" y2="241.493"/>
		<line fill="none" stroke="#000000" stroke-width="0.3" x1="348.028" y1="228.052" x2="361.468" y2="228.052"/>
		<polyline fill="none" stroke="#000000" stroke-width="0.3" points="374.908,241.493 361.468,241.493 361.468,228.052 
			374.908,228.052 		"/>
		<polyline fill="none" stroke="#000000" stroke-width="0.3" points="388.348,241.493 374.908,241.493 374.908,228.052 
			388.348,228.052 		"/>
		<rect x="388.348" y="228.052" fill="none" stroke="#000000" stroke-width="0.3" width="13.44" height="13.44"/>
		<line fill="none" stroke="#000000" stroke-width="0.3" x1="334.588" y1="241.493" x2="334.588" y2="228.052"/>
		<polyline fill="none" stroke="#000000" stroke-width="0.3" points="334.588,228.052 348.028,228.052 348.028,241.493 
			334.588,241.493 		"/>
	</g>
</g>
<g>
	<path d="M341.667,237.649h-0.707v-4.481c-0.169,0.162-0.391,0.323-0.665,0.484c-0.274,0.162-0.522,0.282-0.741,0.364v-0.68
		c0.395-0.187,0.738-0.41,1.033-0.672c0.294-0.265,0.502-0.52,0.625-0.766h0.455V237.649z"/>
</g>
<g>
	<path d="M381.963,237.649h-0.706v-4.481c-0.17,0.162-0.392,0.323-0.666,0.484c-0.275,0.162-0.521,0.282-0.74,0.364v-0.68
		c0.394-0.187,0.737-0.41,1.031-0.672c0.295-0.265,0.504-0.52,0.625-0.766h0.456V237.649z"/>
</g>
<g>
	<path d="M368.538,237.649h-0.705v-4.481c-0.17,0.162-0.393,0.323-0.666,0.484c-0.275,0.162-0.521,0.282-0.74,0.364v-0.68
		c0.393-0.187,0.736-0.41,1.031-0.672c0.295-0.265,0.504-0.52,0.625-0.766h0.455V237.649z"/>
</g>
<g>
	<path d="M355.106,237.649H354.4v-4.481c-0.169,0.162-0.392,0.323-0.665,0.484c-0.275,0.162-0.522,0.282-0.741,0.364v-0.68
		c0.394-0.187,0.737-0.41,1.032-0.672c0.295-0.265,0.503-0.52,0.625-0.766h0.455V237.649z"/>
</g>
<g>
	<path fill="#FFFFFF" d="M312.889,224.165l-0.081-0.652c0.154,0.041,0.289,0.063,0.405,0.063c0.157,0,0.282-0.026,0.378-0.078
		c0.094-0.053,0.17-0.126,0.231-0.22c0.044-0.07,0.116-0.245,0.216-0.525c0.014-0.039,0.034-0.097,0.063-0.172l-1.574-4.168h0.754
		l0.865,2.404c0.111,0.306,0.213,0.626,0.302,0.962c0.081-0.319,0.179-0.632,0.29-0.939l0.889-2.427h0.703l-1.574,4.228
		c-0.171,0.455-0.303,0.768-0.397,0.939c-0.126,0.231-0.27,0.401-0.433,0.509c-0.162,0.108-0.355,0.162-0.58,0.162
		C313.208,224.25,313.057,224.221,312.889,224.165z"/>
</g>
<g>
	<path fill="#FFFFFF" d="M312.595,236.848v-0.57l2.635-3.029c-0.299,0.017-0.563,0.025-0.791,0.025h-1.688v-0.582h3.393v0.473
		l-2.25,2.632l-0.439,0.489c0.316-0.028,0.613-0.043,0.891-0.043h1.924v0.605H312.595z"/>
</g>
<g>
	<path fill="#FFFFFF" d="M328.338,221.333c0-0.677,0.069-1.222,0.21-1.635c0.139-0.414,0.346-0.732,0.621-0.955
		c0.274-0.223,0.621-0.334,1.037-0.334c0.309,0,0.578,0.062,0.812,0.186s0.425,0.302,0.575,0.535
		c0.15,0.232,0.268,0.516,0.354,0.851c0.086,0.334,0.129,0.785,0.129,1.353c0,0.672-0.068,1.214-0.207,1.628
		c-0.139,0.413-0.344,0.731-0.619,0.956s-0.623,0.336-1.043,0.336c-0.552,0-0.986-0.197-1.301-0.591
		C328.526,223.184,328.338,222.407,328.338,221.333z M329.063,221.331c0,0.94,0.109,1.566,0.329,1.876s0.491,0.465,0.813,0.465
		c0.323,0,0.594-0.155,0.814-0.467c0.22-0.311,0.33-0.936,0.33-1.874c0-0.941-0.109-1.567-0.329-1.877
		c-0.22-0.309-0.493-0.464-0.823-0.464c-0.322,0-0.58,0.137-0.773,0.409C329.183,219.748,329.063,220.391,329.063,221.331z"/>
</g>
<g>
	<path fill="#FFFFFF" d="M323.663,236.08l0.706-0.094c0.081,0.398,0.218,0.686,0.411,0.861c0.191,0.176,0.43,0.264,0.709,0.264
		c0.333,0,0.613-0.114,0.841-0.344c0.227-0.228,0.339-0.511,0.339-0.849c0-0.322-0.104-0.588-0.315-0.797s-0.479-0.313-0.805-0.313
		c-0.133,0-0.298,0.025-0.495,0.078l0.078-0.619c0.047,0.005,0.084,0.008,0.112,0.008c0.298,0,0.565-0.079,0.805-0.235
		c0.239-0.154,0.358-0.395,0.358-0.72c0-0.257-0.088-0.469-0.262-0.638s-0.398-0.253-0.675-0.253c-0.272,0-0.5,0.086-0.681,0.258
		c-0.184,0.172-0.301,0.43-0.352,0.773l-0.707-0.125c0.086-0.472,0.281-0.839,0.586-1.099s0.685-0.389,1.138-0.389
		c0.313,0,0.602,0.066,0.864,0.201c0.262,0.133,0.464,0.315,0.604,0.547c0.141,0.232,0.209,0.479,0.209,0.737
		c0,0.249-0.066,0.474-0.199,0.677c-0.133,0.201-0.329,0.364-0.59,0.483c0.339,0.078,0.602,0.24,0.789,0.486
		c0.188,0.245,0.281,0.553,0.281,0.922c0,0.499-0.182,0.923-0.547,1.27c-0.364,0.348-0.825,0.521-1.383,0.521
		c-0.502,0-0.92-0.149-1.252-0.449C323.899,236.944,323.71,236.555,323.663,236.08z"/>
</g>
<g>
	<path fill="#FFFFFF" d="M328.341,234.773c0-0.677,0.07-1.222,0.209-1.636c0.14-0.414,0.347-0.731,0.621-0.954
		c0.275-0.223,0.621-0.335,1.039-0.335c0.308,0,0.578,0.063,0.811,0.186s0.424,0.303,0.575,0.535
		c0.149,0.232,0.269,0.517,0.354,0.851c0.086,0.335,0.129,0.786,0.129,1.354c0,0.671-0.069,1.213-0.207,1.627
		c-0.139,0.413-0.346,0.732-0.62,0.956c-0.274,0.225-0.622,0.336-1.042,0.336c-0.553,0-0.986-0.196-1.302-0.59
		C328.53,236.624,328.341,235.847,328.341,234.773z M329.065,234.77c0,0.941,0.111,1.566,0.33,1.876
		c0.221,0.311,0.492,0.465,0.814,0.465s0.594-0.155,0.814-0.466c0.219-0.312,0.329-0.937,0.329-1.875
		c0-0.941-0.109-1.566-0.329-1.876c-0.219-0.31-0.494-0.464-0.822-0.464c-0.322,0-0.582,0.137-0.774,0.409
		C329.187,233.188,329.065,233.832,329.065,234.77z"/>
</g>
<g>
	<path d="M393.198,221.286c0-0.677,0.07-1.222,0.21-1.635c0.14-0.414,0.347-0.732,0.621-0.955s0.621-0.334,1.038-0.334
		c0.309,0,0.578,0.062,0.811,0.186c0.233,0.124,0.425,0.302,0.576,0.535c0.149,0.232,0.268,0.516,0.354,0.851
		c0.086,0.334,0.129,0.785,0.129,1.353c0,0.672-0.068,1.214-0.207,1.628c-0.139,0.413-0.345,0.731-0.619,0.956
		c-0.275,0.225-0.623,0.336-1.043,0.336c-0.553,0-0.986-0.197-1.301-0.591C393.388,223.137,393.198,222.36,393.198,221.286z
		 M393.924,221.284c0,0.94,0.11,1.566,0.329,1.876c0.221,0.31,0.492,0.465,0.814,0.465s0.594-0.155,0.814-0.467
		c0.219-0.311,0.33-0.936,0.33-1.874c0-0.941-0.109-1.567-0.33-1.877c-0.219-0.309-0.493-0.464-0.822-0.464
		c-0.322,0-0.581,0.137-0.773,0.409C394.044,219.701,393.924,220.344,393.924,221.284z"/>
</g>
<g>
	<path d="M393.202,234.773c0-0.677,0.069-1.222,0.209-1.636c0.139-0.414,0.346-0.731,0.621-0.954s0.621-0.335,1.039-0.335
		c0.307,0,0.578,0.063,0.811,0.186s0.424,0.303,0.574,0.535s0.269,0.517,0.354,0.851c0.086,0.335,0.129,0.786,0.129,1.354
		c0,0.671-0.069,1.213-0.207,1.627c-0.138,0.413-0.345,0.732-0.62,0.956c-0.274,0.225-0.622,0.336-1.041,0.336
		c-0.553,0-0.987-0.196-1.303-0.59C393.392,236.624,393.202,235.847,393.202,234.773z M393.927,234.77
		c0,0.941,0.11,1.566,0.33,1.876c0.221,0.311,0.491,0.465,0.814,0.465c0.322,0,0.594-0.155,0.813-0.466
		c0.22-0.312,0.329-0.937,0.329-1.875c0-0.941-0.109-1.566-0.328-1.876c-0.22-0.31-0.494-0.464-0.822-0.464
		c-0.323,0-0.582,0.137-0.775,0.409C394.048,233.188,393.927,233.832,393.927,234.77z"/>
</g>
<radialGradient id="qc2_2_10_" cx="341.3115" cy="248.2104" r="6.7202" gradientUnits="userSpaceOnUse">
	<stop  offset="0" style="stop-color:#FFFFFF"/>
	<stop  offset="1" style="stop-color:#6BFC63"/>
</radialGradient>
<rect id="qc2_2_9_" x="334.591" y="241.49" onmouseover="Name[0]='cube2_2';Name[1]='qc2_2';Size=2;mouse_in(evt)" onmouseout="mouse_out(evt)" fill="url(#qc2_2_10_)" stroke="#000000" stroke-width="0.3" stroke-linecap="round" stroke-linejoin="round" width="13.441" height="13.44"/>
<radialGradient id="qc2_3_10_" cx="354.752" cy="248.2104" r="6.7197" gradientUnits="userSpaceOnUse">
	<stop  offset="0" style="stop-color:#FFFFFF"/>
	<stop  offset="0.1361" style="stop-color:#FBFFFF"/>
	<stop  offset="0.2773" style="stop-color:#EEFFFE"/>
	<stop  offset="0.4208" style="stop-color:#DAFFFD"/>
	<stop  offset="0.5659" style="stop-color:#BDFFFB"/>
	<stop  offset="0.7122" style="stop-color:#97FFF9"/>
	<stop  offset="0.8575" style="stop-color:#6AFFF6"/>
	<stop  offset="1" style="stop-color:#36FFF3"/>
</radialGradient>
<rect id="qc2_3_9_" x="348.032" y="241.49" onmouseover="Name[0]='cube2_3';Name[1]='qc2_3';Size=2;mouse_in(evt)" onmouseout="mouse_out(evt)" fill="url(#qc2_3_10_)" stroke="#000000" stroke-width="0.3" stroke-linecap="round" stroke-linejoin="round" width="13.439" height="13.44"/>
<radialGradient id="qc2_6_10_" cx="368.1914" cy="248.2104" r="6.7197" gradientUnits="userSpaceOnUse">
	<stop  offset="0" style="stop-color:#FFFFFF"/>
	<stop  offset="0.1768" style="stop-color:#FBFBFF"/>
	<stop  offset="0.3599" style="stop-color:#EEEFFF"/>
	<stop  offset="0.5461" style="stop-color:#DADCFF"/>
	<stop  offset="0.7343" style="stop-color:#BDC1FF"/>
	<stop  offset="0.9223" style="stop-color:#989EFF"/>
	<stop  offset="1" style="stop-color:#868EFF"/>
</radialGradient>
<rect id="qc2_6_9_" x="361.472" y="241.49" onmouseover="Name[0]='cube2_6';Name[1]='qc2_6';Size=2;mouse_in(evt)" onmouseout="mouse_out(evt)" fill="url(#qc2_6_10_)" stroke="#000000" stroke-width="0.3" stroke-linecap="round" stroke-linejoin="round" width="13.439" height="13.44"/>
<radialGradient id="qc2_5_10_" cx="381.6309" cy="248.2104" r="6.7197" gradientUnits="userSpaceOnUse">
	<stop  offset="0" style="stop-color:#FFFFFF"/>
	<stop  offset="0.1768" style="stop-color:#FFFBFF"/>
	<stop  offset="0.3599" style="stop-color:#FEEEFF"/>
	<stop  offset="0.5461" style="stop-color:#FEDAFF"/>
	<stop  offset="0.7343" style="stop-color:#FDBDFF"/>
	<stop  offset="0.9223" style="stop-color:#FC98FF"/>
	<stop  offset="1" style="stop-color:#FB86FF"/>
</radialGradient>
<rect id="qc2_5_9_" x="374.911" y="241.49" onmouseover="Name[0]='cube2_5';Name[1]='qc2_5';Size=2;mouse_in(evt)" onmouseout="mouse_out(evt)" fill="url(#qc2_5_10_)" stroke="#000000" stroke-width="0.3" stroke-linecap="round" stroke-linejoin="round" width="13.439" height="13.44"/>
<radialGradient id="qc2_1_10_" cx="395.0703" cy="248.2104" r="6.7202" gradientUnits="userSpaceOnUse">
	<stop  offset="0" style="stop-color:#FFFFFF"/>
	<stop  offset="0.1567" style="stop-color:#FFFBFB"/>
	<stop  offset="0.319" style="stop-color:#FFEEEE"/>
	<stop  offset="0.484" style="stop-color:#FFDADA"/>
	<stop  offset="0.6509" style="stop-color:#FFBDBD"/>
	<stop  offset="0.8192" style="stop-color:#FF9797"/>
	<stop  offset="0.9865" style="stop-color:#FF6A6A"/>
	<stop  offset="1" style="stop-color:#FF6666"/>
</radialGradient>
<rect id="qc2_1_9_" x="388.351" y="241.49" onmouseover="Name[0]='cube2_1';Name[1]='qc2_1';Size=2;mouse_in(evt)" onmouseout="mouse_out(evt)" fill="url(#qc2_1_10_)" stroke="#000000" stroke-width="0.3" stroke-linecap="round" stroke-linejoin="round" width="13.44" height="13.44"/>
<g>
	<path d="M339.458,246.057v-0.675h3.707v0.546c-0.365,0.389-0.726,0.904-1.084,1.549c-0.357,0.644-0.634,1.305-0.828,1.985
		c-0.141,0.479-0.23,1.005-0.27,1.576h-0.725c0.008-0.451,0.096-0.995,0.266-1.635c0.169-0.638,0.412-1.255,0.729-1.848
		c0.318-0.593,0.654-1.093,1.012-1.499H339.458z"/>
</g>
<g>
	<path d="M395.339,250.838v-1.369h-2.486v-0.644l2.618-3.712h0.575v3.712h0.775v0.644h-0.775v1.369H395.339z M395.339,248.826
		v-2.578l-1.795,2.578H395.339z"/>
</g>
<g>
	<path d="M352.899,246.057v-0.675h3.705v0.546c-0.363,0.389-0.725,0.904-1.082,1.549c-0.357,0.644-0.635,1.305-0.829,1.985
		c-0.141,0.479-0.23,1.005-0.27,1.576h-0.726c0.008-0.451,0.097-0.995,0.266-1.635c0.17-0.638,0.413-1.255,0.73-1.848
		c0.316-0.593,0.654-1.093,1.011-1.499H352.899z"/>
</g>
<g>
	<path d="M366.339,246.057v-0.675h3.706v0.546c-0.364,0.389-0.726,0.904-1.083,1.549c-0.357,0.644-0.635,1.305-0.828,1.985
		c-0.141,0.479-0.23,1.005-0.27,1.576h-0.726c0.008-0.451,0.097-0.995,0.266-1.635c0.169-0.638,0.413-1.255,0.729-1.848
		c0.317-0.593,0.654-1.093,1.012-1.499H366.339z"/>
</g>
<g>
	<path d="M379.778,246.057v-0.675h3.707v0.546c-0.365,0.389-0.726,0.904-1.084,1.549c-0.357,0.644-0.634,1.305-0.828,1.985
		c-0.141,0.479-0.23,1.005-0.27,1.576h-0.725c0.008-0.451,0.096-0.995,0.266-1.635c0.169-0.638,0.412-1.255,0.729-1.848
		c0.318-0.593,0.654-1.093,1.012-1.499H379.778z"/>
</g>
<g>
	<path fill="#FFFFFF" d="M293.274,190.241c-0.34-0.43-0.627-0.93-0.861-1.504c-0.235-0.574-0.354-1.17-0.354-1.785
		c0-0.543,0.088-1.063,0.264-1.559c0.205-0.576,0.523-1.15,0.951-1.723h0.441c-0.275,0.473-0.458,0.813-0.547,1.016
		c-0.14,0.314-0.249,0.643-0.329,0.984c-0.099,0.426-0.147,0.854-0.147,1.285c0,1.096,0.342,2.191,1.023,3.285H293.274z"/>
	<path fill="#FFFFFF" d="M294.259,188.104l0.617-0.082c0.07,0.348,0.19,0.6,0.359,0.754c0.17,0.152,0.377,0.23,0.622,0.23
		c0.291,0,0.536-0.102,0.735-0.301c0.199-0.201,0.299-0.449,0.299-0.744c0-0.283-0.093-0.516-0.277-0.699
		c-0.186-0.182-0.42-0.273-0.705-0.273c-0.117,0-0.262,0.021-0.436,0.068l0.069-0.539c0.041,0.004,0.073,0.006,0.099,0.006
		c0.263,0,0.498-0.068,0.709-0.205c0.209-0.137,0.314-0.348,0.314-0.633c0-0.225-0.076-0.412-0.229-0.561
		c-0.153-0.146-0.351-0.221-0.591-0.221s-0.439,0.074-0.6,0.225c-0.159,0.15-0.262,0.377-0.307,0.678l-0.617-0.109
		c0.074-0.414,0.246-0.734,0.513-0.961s0.599-0.34,0.995-0.34c0.273,0,0.526,0.059,0.756,0.176c0.23,0.117,0.407,0.277,0.529,0.48
		s0.184,0.418,0.184,0.646c0,0.217-0.059,0.414-0.175,0.592s-0.288,0.318-0.517,0.424c0.297,0.068,0.527,0.211,0.691,0.426
		s0.246,0.482,0.246,0.807c0,0.436-0.16,0.807-0.479,1.109c-0.319,0.305-0.724,0.457-1.212,0.457c-0.439,0-0.806-0.131-1.096-0.393
		C294.466,188.86,294.3,188.52,294.259,188.104z"/>
	<path fill="#FFFFFF" d="M300.032,189.428h-0.617v-3.922c-0.148,0.143-0.343,0.283-0.583,0.424
		c-0.241,0.143-0.456,0.248-0.647,0.318v-0.594c0.344-0.162,0.645-0.357,0.902-0.588s0.439-0.453,0.547-0.67h0.398V189.428z"/>
	<path fill="#FFFFFF" d="M300.698,189.463v-0.699h0.699v0.699c0,0.258-0.045,0.465-0.137,0.623c-0.091,0.16-0.235,0.281-0.434,0.369
		l-0.172-0.262c0.131-0.059,0.227-0.143,0.288-0.252c0.062-0.111,0.096-0.271,0.103-0.479H300.698z"/>
	<path fill="#FFFFFF" d="M303.315,188.104l0.617-0.082c0.07,0.348,0.19,0.6,0.359,0.754c0.17,0.152,0.377,0.23,0.622,0.23
		c0.291,0,0.536-0.102,0.735-0.301c0.199-0.201,0.299-0.449,0.299-0.744c0-0.283-0.093-0.516-0.277-0.699
		c-0.186-0.182-0.42-0.273-0.705-0.273c-0.117,0-0.262,0.021-0.435,0.068l0.068-0.539c0.041,0.004,0.073,0.006,0.099,0.006
		c0.263,0,0.498-0.068,0.709-0.205c0.209-0.137,0.314-0.348,0.314-0.633c0-0.225-0.076-0.412-0.229-0.561
		c-0.153-0.146-0.351-0.221-0.592-0.221c-0.239,0-0.438,0.074-0.599,0.225c-0.159,0.15-0.262,0.377-0.307,0.678l-0.617-0.109
		c0.074-0.414,0.246-0.734,0.513-0.961s0.599-0.34,0.995-0.34c0.274,0,0.526,0.059,0.757,0.176c0.229,0.117,0.406,0.277,0.528,0.48
		s0.184,0.418,0.184,0.646c0,0.217-0.059,0.414-0.175,0.592s-0.288,0.318-0.517,0.424c0.297,0.068,0.527,0.211,0.691,0.426
		s0.246,0.482,0.246,0.807c0,0.436-0.16,0.807-0.479,1.109c-0.319,0.305-0.724,0.457-1.212,0.457c-0.439,0-0.806-0.131-1.096-0.393
		C303.522,188.86,303.356,188.52,303.315,188.104z"/>
	<path fill="#FFFFFF" d="M307.204,186.958c0-0.594,0.061-1.07,0.184-1.432c0.121-0.363,0.303-0.641,0.543-0.836
		s0.543-0.293,0.908-0.293c0.27,0,0.506,0.053,0.709,0.162c0.203,0.107,0.371,0.264,0.503,0.469c0.132,0.203,0.235,0.451,0.31,0.744
		c0.076,0.293,0.113,0.688,0.113,1.186c0,0.588-0.061,1.063-0.182,1.424s-0.301,0.641-0.542,0.838
		c-0.24,0.195-0.544,0.295-0.911,0.295c-0.483,0-0.863-0.174-1.139-0.518C307.369,188.579,307.204,187.897,307.204,186.958z
		 M307.837,186.956c0,0.824,0.096,1.371,0.289,1.643c0.192,0.271,0.43,0.408,0.713,0.408s0.521-0.137,0.713-0.41
		c0.193-0.271,0.289-0.82,0.289-1.641c0-0.826-0.096-1.373-0.289-1.645c-0.191-0.271-0.432-0.406-0.72-0.406
		c-0.282,0-0.509,0.119-0.679,0.357C307.942,185.569,307.837,186.133,307.837,186.956z"/>
	<path fill="#FFFFFF" d="M310.803,189.463v-0.699h0.699v0.699c0,0.258-0.046,0.465-0.137,0.623c-0.091,0.16-0.235,0.281-0.434,0.369
		l-0.172-0.262c0.13-0.059,0.226-0.143,0.288-0.252c0.062-0.111,0.096-0.271,0.104-0.479H310.803z"/>
	<path fill="#FFFFFF" d="M313.046,188.104l0.617-0.082c0.07,0.348,0.191,0.6,0.359,0.754c0.17,0.152,0.377,0.23,0.623,0.23
		c0.291,0,0.535-0.102,0.734-0.301c0.199-0.201,0.299-0.449,0.299-0.744c0-0.283-0.092-0.516-0.277-0.699
		c-0.185-0.182-0.42-0.273-0.705-0.273c-0.116,0-0.261,0.021-0.435,0.068l0.069-0.539c0.041,0.004,0.073,0.006,0.099,0.006
		c0.263,0,0.498-0.068,0.708-0.205c0.209-0.137,0.314-0.348,0.314-0.633c0-0.225-0.076-0.412-0.229-0.561
		c-0.153-0.146-0.351-0.221-0.592-0.221c-0.24,0-0.439,0.074-0.599,0.225s-0.263,0.377-0.308,0.678l-0.617-0.109
		c0.075-0.414,0.246-0.734,0.514-0.961c0.267-0.227,0.598-0.34,0.995-0.34c0.273,0,0.526,0.059,0.756,0.176
		c0.23,0.117,0.407,0.277,0.528,0.48c0.123,0.203,0.184,0.418,0.184,0.646c0,0.217-0.059,0.414-0.174,0.592
		c-0.117,0.178-0.289,0.318-0.517,0.424c0.296,0.068,0.526,0.211,0.69,0.426s0.246,0.482,0.246,0.807
		c0,0.436-0.16,0.807-0.479,1.109c-0.32,0.305-0.724,0.457-1.212,0.457c-0.44,0-0.806-0.131-1.097-0.393
		S313.087,188.52,313.046,188.104z"/>
	<path fill="#FFFFFF" d="M316.935,186.958c0-0.594,0.062-1.07,0.184-1.432c0.122-0.363,0.303-0.641,0.543-0.836
		c0.241-0.195,0.544-0.293,0.908-0.293c0.27,0,0.506,0.053,0.709,0.162c0.204,0.107,0.371,0.264,0.503,0.469
		c0.132,0.203,0.235,0.451,0.311,0.744s0.112,0.688,0.112,1.186c0,0.588-0.061,1.063-0.181,1.424
		c-0.121,0.361-0.302,0.641-0.542,0.838c-0.24,0.195-0.545,0.295-0.912,0.295c-0.482,0-0.862-0.174-1.139-0.518
		C317.101,188.579,316.935,187.897,316.935,186.958z M317.567,186.956c0,0.824,0.097,1.371,0.289,1.643
		c0.193,0.271,0.431,0.408,0.713,0.408c0.283,0,0.521-0.137,0.713-0.41c0.193-0.271,0.289-0.82,0.289-1.641
		c0-0.826-0.096-1.373-0.288-1.645s-0.433-0.406-0.72-0.406c-0.283,0-0.51,0.119-0.679,0.357
		C317.673,185.569,317.567,186.133,317.567,186.956z"/>
	<path fill="#FFFFFF" d="M321.402,190.241h-0.441c0.683-1.094,1.023-2.189,1.023-3.285c0-0.43-0.049-0.854-0.147-1.275
		c-0.077-0.342-0.186-0.67-0.324-0.984c-0.09-0.205-0.273-0.547-0.552-1.025h0.441c0.429,0.572,0.746,1.146,0.951,1.723
		c0.176,0.496,0.264,1.016,0.264,1.559c0,0.615-0.118,1.211-0.354,1.785S321.74,189.811,321.402,190.241z"/>
</g>
<g>
	<path fill="#FFFFFF" d="M283.598,180.71l-1.381-3.633h0.649l0.78,2.176c0.084,0.234,0.161,0.479,0.232,0.731
		c0.055-0.191,0.131-0.422,0.229-0.69l0.809-2.217h0.632l-1.378,3.633H283.598z"/>
	<path fill="#FFFFFF" d="M285.861,178.894c0-0.673,0.187-1.171,0.56-1.495c0.313-0.269,0.693-0.403,1.142-0.403
		c0.499,0,0.905,0.164,1.223,0.491c0.316,0.327,0.475,0.779,0.475,1.355c0,0.468-0.07,0.836-0.21,1.104
		c-0.141,0.268-0.344,0.477-0.611,0.624c-0.268,0.148-0.56,0.223-0.876,0.223c-0.508,0-0.919-0.163-1.231-0.489
		C286.018,179.977,285.861,179.507,285.861,178.894z M286.494,178.892c0,0.466,0.101,0.813,0.304,1.045s0.457,0.348,0.765,0.348
		c0.305,0,0.558-0.116,0.761-0.349s0.304-0.588,0.304-1.064c0-0.449-0.102-0.789-0.306-1.021c-0.203-0.231-0.457-0.348-0.759-0.348
		c-0.308,0-0.562,0.115-0.765,0.346S286.494,178.427,286.494,178.892z"/>
	<path fill="#FFFFFF" d="M289.571,180.71l1.328-1.88l-1.23-1.753h0.76l0.568,0.854c0.106,0.161,0.19,0.295,0.253,0.402
		c0.103-0.146,0.195-0.276,0.278-0.394l0.609-0.862h0.739l-1.229,1.743l1.322,1.89h-0.752l-0.752-1.126l-0.176-0.277l-0.975,1.403
		H289.571z"/>
	<path fill="#FFFFFF" d="M295.97,179.539l0.635,0.082c-0.1,0.371-0.285,0.659-0.557,0.864s-0.618,0.308-1.039,0.308
		c-0.531,0-0.953-0.163-1.264-0.491c-0.312-0.327-0.467-0.786-0.467-1.377c0-0.61,0.156-1.085,0.471-1.423
		c0.315-0.337,0.723-0.506,1.225-0.506c0.486,0,0.883,0.165,1.19,0.496c0.308,0.33,0.462,0.795,0.462,1.395
		c0,0.036-0.002,0.091-0.004,0.164h-2.711c0.022,0.399,0.135,0.704,0.339,0.916c0.203,0.212,0.457,0.318,0.761,0.318
		c0.227,0,0.419-0.06,0.579-0.178C295.749,179.988,295.876,179.798,295.97,179.539z M293.946,178.542h2.031
		c-0.027-0.305-0.105-0.532-0.233-0.685c-0.196-0.236-0.451-0.354-0.764-0.354c-0.283,0-0.521,0.095-0.714,0.283
		C294.073,177.975,293.966,178.227,293.946,178.542z"/>
	<path fill="#FFFFFF" d="M297.362,180.71v-5.012h0.617v5.012H297.362z"/>
	<path fill="#FFFFFF" d="M303.241,179.378l0.605,0.082c-0.066,0.417-0.235,0.743-0.508,0.979c-0.271,0.235-0.605,0.354-1.002,0.354
		c-0.497,0-0.896-0.162-1.197-0.487c-0.303-0.325-0.453-0.791-0.453-1.397c0-0.393,0.064-0.735,0.195-1.029
		c0.129-0.294,0.326-0.515,0.592-0.662s0.555-0.221,0.866-0.221c0.394,0,0.716,0.1,0.967,0.299s0.411,0.482,0.481,0.85l-0.598,0.094
		c-0.057-0.243-0.158-0.427-0.303-0.55s-0.318-0.185-0.523-0.185c-0.31,0-0.561,0.111-0.755,0.333
		c-0.193,0.223-0.29,0.573-0.29,1.055c0,0.487,0.094,0.841,0.279,1.063c0.188,0.221,0.431,0.331,0.73,0.331
		c0.242,0,0.443-0.074,0.605-0.223C303.096,179.915,303.198,179.686,303.241,179.378z"/>
	<path fill="#FFFFFF" d="M304.147,178.894c0-0.673,0.187-1.171,0.561-1.495c0.312-0.269,0.691-0.403,1.141-0.403
		c0.498,0,0.906,0.164,1.223,0.491s0.475,0.779,0.475,1.355c0,0.468-0.07,0.836-0.21,1.104s-0.344,0.477-0.611,0.624
		c-0.268,0.148-0.56,0.223-0.876,0.223c-0.508,0-0.918-0.163-1.231-0.489S304.147,179.507,304.147,178.894z M304.78,178.892
		c0,0.466,0.102,0.813,0.304,1.045s0.457,0.348,0.765,0.348c0.305,0,0.559-0.116,0.761-0.349s0.304-0.588,0.304-1.064
		c0-0.449-0.102-0.789-0.306-1.021c-0.203-0.231-0.456-0.348-0.759-0.348c-0.308,0-0.563,0.115-0.765,0.346
		S304.78,178.427,304.78,178.892z"/>
	<path fill="#FFFFFF" d="M308.04,178.894c0-0.673,0.188-1.171,0.561-1.495c0.313-0.269,0.692-0.403,1.141-0.403
		c0.499,0,0.906,0.164,1.223,0.491s0.475,0.779,0.475,1.355c0,0.468-0.069,0.836-0.209,1.104c-0.141,0.268-0.344,0.477-0.611,0.624
		c-0.268,0.148-0.561,0.223-0.877,0.223c-0.508,0-0.918-0.163-1.23-0.489C308.197,179.977,308.04,179.507,308.04,178.894z
		 M308.673,178.892c0,0.466,0.102,0.813,0.305,1.045c0.202,0.231,0.457,0.348,0.764,0.348c0.305,0,0.559-0.116,0.762-0.349
		c0.202-0.232,0.303-0.588,0.303-1.064c0-0.449-0.102-0.789-0.305-1.021c-0.204-0.231-0.457-0.348-0.76-0.348
		c-0.307,0-0.562,0.115-0.764,0.346C308.774,178.08,308.673,178.427,308.673,178.892z"/>
	<path fill="#FFFFFF" d="M312.152,180.71v-3.633h0.555v0.552c0.142-0.259,0.272-0.429,0.392-0.511
		c0.121-0.082,0.252-0.123,0.396-0.123c0.208,0,0.419,0.066,0.634,0.198l-0.216,0.57c-0.15-0.088-0.301-0.132-0.451-0.132
		c-0.134,0-0.254,0.04-0.361,0.121c-0.106,0.081-0.184,0.193-0.229,0.337c-0.068,0.219-0.103,0.459-0.103,0.719v1.901H312.152z"/>
	<path fill="#FFFFFF" d="M316.843,180.71v-0.46c-0.23,0.361-0.568,0.542-1.016,0.542c-0.289,0-0.556-0.08-0.799-0.239
		c-0.242-0.16-0.43-0.383-0.563-0.669s-0.2-0.615-0.2-0.987c0-0.362,0.061-0.691,0.181-0.986s0.302-0.521,0.542-0.679
		c0.242-0.157,0.512-0.236,0.809-0.236c0.219,0,0.413,0.046,0.584,0.138c0.17,0.093,0.309,0.212,0.416,0.359v-1.794h0.617v5.012
		H316.843z M314.897,178.896c0,0.465,0.098,0.813,0.295,1.043c0.195,0.23,0.427,0.346,0.693,0.346c0.27,0,0.498-0.11,0.687-0.33
		s0.282-0.556,0.282-1.008c0-0.497-0.096-0.861-0.287-1.095c-0.191-0.232-0.428-0.349-0.709-0.349c-0.273,0-0.502,0.111-0.686,0.335
		S314.897,178.415,314.897,178.896z"/>
	<path fill="#FFFFFF" d="M318.388,176.406v-0.707h0.617v0.707H318.388z M318.388,180.71v-3.633h0.617v3.633H318.388z"/>
	<path fill="#FFFFFF" d="M319.939,180.71v-3.633h0.555v0.517c0.267-0.399,0.652-0.599,1.156-0.599c0.22,0,0.421,0.039,0.604,0.118
		c0.184,0.078,0.32,0.182,0.412,0.31c0.091,0.128,0.154,0.279,0.191,0.455c0.023,0.114,0.034,0.313,0.034,0.599v2.233h-0.617v-2.209
		c0-0.25-0.024-0.438-0.071-0.563c-0.049-0.124-0.133-0.223-0.255-0.297s-0.265-0.111-0.429-0.111c-0.262,0-0.488,0.083-0.679,0.25
		c-0.19,0.166-0.285,0.481-0.285,0.946v1.983H319.939z"/>
	<path fill="#FFFFFF" d="M326.204,180.261c-0.229,0.194-0.447,0.331-0.658,0.411s-0.438,0.12-0.679,0.12
		c-0.399,0-0.706-0.098-0.92-0.292c-0.215-0.195-0.321-0.444-0.321-0.747c0-0.179,0.04-0.341,0.121-0.487
		c0.08-0.147,0.188-0.266,0.318-0.354s0.278-0.156,0.442-0.201c0.121-0.032,0.304-0.063,0.548-0.093
		c0.496-0.06,0.863-0.13,1.098-0.212c0.002-0.085,0.004-0.139,0.004-0.161c0-0.252-0.059-0.429-0.175-0.532
		c-0.157-0.14-0.392-0.209-0.702-0.209c-0.289,0-0.504,0.051-0.642,0.152s-0.24,0.281-0.306,0.539l-0.602-0.082
		c0.055-0.257,0.145-0.465,0.27-0.623c0.125-0.159,0.307-0.28,0.544-0.366c0.237-0.085,0.512-0.128,0.823-0.128
		c0.311,0,0.563,0.036,0.756,0.109s0.336,0.164,0.428,0.274c0.092,0.111,0.154,0.25,0.191,0.419
		c0.021,0.104,0.031,0.294,0.031,0.568v0.821c0,0.573,0.013,0.936,0.039,1.087c0.025,0.151,0.078,0.297,0.156,0.436h-0.645
		C326.262,180.583,326.222,180.433,326.204,180.261z M326.153,178.886c-0.225,0.092-0.559,0.169-1.006,0.233
		c-0.254,0.036-0.433,0.077-0.537,0.123c-0.105,0.046-0.186,0.112-0.243,0.2s-0.085,0.186-0.085,0.293
		c0,0.165,0.062,0.302,0.186,0.412c0.125,0.109,0.307,0.164,0.546,0.164c0.237,0,0.448-0.052,0.634-0.156
		c0.184-0.104,0.32-0.246,0.406-0.427c0.066-0.139,0.1-0.345,0.1-0.616V178.886z"/>
	<path fill="#FFFFFF" d="M329.069,180.159l0.09,0.544c-0.174,0.036-0.328,0.055-0.465,0.055c-0.224,0-0.396-0.035-0.521-0.106
		c-0.123-0.07-0.21-0.163-0.26-0.278s-0.075-0.356-0.075-0.726v-2.089h-0.453v-0.48h0.453v-0.899l0.617-0.369v1.269h0.613v0.48
		h-0.613v2.122c0,0.176,0.011,0.289,0.032,0.339s0.057,0.09,0.104,0.12c0.049,0.029,0.119,0.044,0.209,0.044
		C328.869,180.183,328.958,180.175,329.069,180.159z"/>
	<path fill="#FFFFFF" d="M332.159,179.539l0.635,0.082c-0.1,0.371-0.285,0.659-0.557,0.864s-0.618,0.308-1.039,0.308
		c-0.531,0-0.953-0.163-1.264-0.491c-0.312-0.327-0.467-0.786-0.467-1.377c0-0.61,0.156-1.085,0.471-1.423
		c0.315-0.337,0.723-0.506,1.225-0.506c0.486,0,0.883,0.165,1.19,0.496c0.308,0.33,0.462,0.795,0.462,1.395
		c0,0.036-0.002,0.091-0.004,0.164h-2.711c0.022,0.399,0.135,0.704,0.339,0.916c0.203,0.212,0.457,0.318,0.761,0.318
		c0.227,0,0.419-0.06,0.579-0.178C331.938,179.988,332.065,179.798,332.159,179.539z M330.136,178.542h2.031
		c-0.027-0.305-0.105-0.532-0.233-0.685c-0.196-0.236-0.451-0.354-0.764-0.354c-0.283,0-0.521,0.095-0.714,0.283
		C330.263,177.975,330.155,178.227,330.136,178.542z"/>
	<path fill="#FFFFFF" d="M333.317,179.628l0.609-0.098c0.034,0.243,0.129,0.43,0.285,0.56s0.375,0.194,0.654,0.194
		c0.283,0,0.492-0.058,0.629-0.173c0.137-0.114,0.205-0.249,0.205-0.404c0-0.139-0.061-0.248-0.182-0.327
		c-0.084-0.055-0.293-0.124-0.629-0.208c-0.452-0.114-0.766-0.213-0.939-0.297c-0.174-0.083-0.307-0.198-0.396-0.346
		c-0.09-0.146-0.135-0.31-0.135-0.487c0-0.162,0.037-0.312,0.111-0.45c0.074-0.138,0.175-0.252,0.303-0.344
		c0.096-0.07,0.227-0.13,0.392-0.18c0.165-0.049,0.343-0.073,0.532-0.073c0.285,0,0.535,0.041,0.75,0.123
		c0.216,0.082,0.375,0.193,0.478,0.334c0.103,0.14,0.173,0.327,0.212,0.563l-0.602,0.082c-0.027-0.187-0.107-0.332-0.238-0.437
		s-0.316-0.157-0.557-0.157c-0.283,0-0.484,0.047-0.605,0.14c-0.121,0.094-0.182,0.203-0.182,0.328c0,0.079,0.025,0.151,0.075,0.215
		c0.05,0.066,0.129,0.12,0.236,0.164c0.062,0.022,0.243,0.075,0.544,0.156c0.437,0.117,0.74,0.212,0.912,0.286
		c0.173,0.074,0.308,0.182,0.406,0.323c0.098,0.142,0.146,0.317,0.146,0.527c0,0.205-0.061,0.398-0.18,0.58
		c-0.119,0.181-0.292,0.321-0.518,0.421c-0.227,0.099-0.481,0.148-0.766,0.148c-0.473,0-0.832-0.098-1.079-0.294
		C333.544,180.303,333.386,180.013,333.317,179.628z"/>
</g>
<path fill="#FFFFFF" stroke="#FFFFFF" stroke-width="0.3" d="M327.864,200.849l-1.44-3.457h2.88L327.864,200.849z"/>
<path fill="none" stroke="#FFFFFF" stroke-width="0.7" d="M354.751,169.987c0.25,24.916-27.387,0.749-26.887,27.583"/>
<g>
	<path fill="#FFFFFF" d="M282.46,68.114v-5.727h0.758v5.727H282.46z"/>
	<path fill="#FFFFFF" d="M284.683,68.114v-5.727h0.758v5.727H284.683z"/>
</g>
</svg>
